<?xml version="1.0" encoding="UTF-8" ?>
<!DOCTYPE svg PUBLIC "-//W3C//DTD SVG 1.1//EN" "http://www.w3.org/Graphics/SVG/1.1/DTD/svg11.dtd">
<svg width="1024pt" height="1024pt" viewBox="0 0 1024 1024" version="1.1" xmlns="http://www.w3.org/2000/svg">
<g id="#543e47af">
<path fill="#543e47" opacity="0.69" d=" M 364.87 216.92 C 370.86 216.00 376.94 216.57 382.97 216.17 C 388.97 215.75 394.99 215.99 401.00 215.94 C 472.33 215.91 543.67 215.98 615.01 215.96 C 626.71 216.04 638.48 215.43 650.13 216.89 C 608.76 217.30 567.38 216.98 526.00 217.07 C 472.29 216.91 418.57 217.30 364.87 216.92 Z" />
<path fill="#543e47" opacity="0.69" d=" M 668.96 219.12 C 669.41 219.10 670.32 219.04 670.77 219.01 L 671.00 219.86 C 670.49 219.68 669.47 219.31 668.96 219.12 Z" />
<path fill="#543e47" opacity="0.69" d=" M 677.10 221.19 L 677.84 220.65 L 678.88 221.00 L 679.13 221.87 C 678.63 221.70 677.61 221.36 677.10 221.19 Z" />
<path fill="#543e47" opacity="0.69" d=" M 731.14 252.89 C 732.87 252.47 733.53 253.13 733.10 254.88 C 732.13 254.51 731.48 253.85 731.14 252.89 Z" />
<path fill="#543e47" opacity="0.69" d=" M 244.44 335.82 C 243.00 334.94 242.90 331.29 244.82 331.18 C 245.03 332.73 244.80 334.29 244.44 335.82 Z" />
<path fill="#543e47" opacity="0.69" d=" M 242.97 336.68 L 244.31 336.62 C 243.82 344.40 244.15 352.21 244.05 360.00 C 244.20 441.67 243.98 523.33 244.04 605.00 C 243.99 610.95 244.37 616.93 243.73 622.86 L 243.33 623.91 C 242.12 610.33 242.86 596.63 242.65 583.00 C 242.58 525.67 242.77 468.33 242.67 411.00 C 242.75 386.22 242.32 361.44 242.97 336.68 Z" />
<path fill="#543e47" opacity="0.69" d=" M 246.29 640.24 C 246.90 641.39 247.16 642.68 247.03 643.98 C 245.29 644.08 244.96 640.99 246.29 640.24 Z" />
<path fill="#543e47" opacity="0.69" d=" M 762.00 663.37 C 762.68 660.71 763.59 658.11 764.78 655.64 C 765.80 658.60 763.92 661.29 762.00 663.37 Z" />
<path fill="#543e47" opacity="0.69" d=" M 706.23 729.22 C 706.64 728.91 707.47 728.28 707.88 727.97 L 707.93 728.85 C 707.51 728.94 706.66 729.13 706.23 729.22 Z" />
<path fill="#543e47" opacity="0.69" d=" M 321.16 735.80 C 322.94 736.15 324.64 736.79 326.29 737.57 C 324.93 738.77 320.84 737.83 321.16 735.80 Z" />
<path fill="#543e47" opacity="0.69" d=" M 672.10 742.84 C 672.58 742.64 673.54 742.24 674.03 742.04 L 673.86 742.94 L 672.86 743.34 L 672.10 742.84 Z" />
<path fill="#543e47" opacity="0.69" d=" M 347.94 743.95 C 349.21 743.88 350.48 744.12 351.68 744.58 C 351.01 746.06 347.80 745.74 347.94 743.95 Z" />
<path fill="#543e47" opacity="0.69" d=" M 352.37 744.76 C 360.25 745.09 368.10 746.14 376.00 745.97 C 453.33 745.96 530.67 745.92 608.00 745.99 C 625.31 745.75 642.68 746.63 659.94 744.88 L 660.18 746.00 C 640.50 747.77 620.73 747.09 601.00 747.27 C 525.00 747.20 449.00 747.39 373.00 747.10 C 366.37 746.38 359.65 746.56 353.06 745.77 L 352.37 744.76 Z" />
<path fill="#543e47" opacity="0.69" d=" M 573.88 805.00 C 579.90 805.04 585.93 804.80 591.95 805.16 C 591.64 806.47 591.34 807.79 591.03 809.12 C 591.00 808.37 590.96 806.89 590.93 806.14 C 585.23 806.08 579.53 806.06 573.83 806.15 L 573.88 805.00 Z" />
<path fill="#543e47" opacity="0.69" d=" M 601.76 805.05 C 607.86 804.91 613.96 805.00 620.06 805.00 L 620.21 806.15 C 614.52 806.06 608.82 806.09 603.13 806.12 C 603.05 807.45 602.99 808.80 602.94 810.15 C 602.47 808.46 602.09 806.75 601.76 805.05 Z" />
<path fill="#543e47" opacity="0.69" d=" M 449.02 808.21 C 450.30 806.82 451.89 809.95 450.02 810.17 C 449.77 809.68 449.27 808.70 449.02 808.21 Z" />
<path fill="#543e47" opacity="0.69" d=" M 574.41 809.56 C 574.99 812.66 575.19 815.83 575.17 819.00 C 575.06 825.47 575.59 832.02 574.24 838.41 C 574.13 828.79 574.84 819.18 574.41 809.56 Z" />
<path fill="#543e47" opacity="0.69" d=" M 618.90 832.00 C 619.01 824.84 618.30 817.61 619.68 810.53 C 620.01 827.01 619.68 843.52 619.81 860.01 C 619.85 861.53 620.27 863.01 620.70 864.48 C 620.28 864.70 619.44 865.12 619.02 865.33 C 618.72 854.22 618.96 843.11 618.90 832.00 Z" />
<path fill="#543e47" opacity="0.69" d=" M 590.08 839.13 C 589.89 830.62 589.31 822.04 590.82 813.62 C 591.14 822.11 591.32 830.69 590.08 839.13 Z" />
<path fill="#543e47" opacity="0.69" d=" M 493.09 836.44 C 493.71 835.14 494.35 835.14 494.99 836.43 C 494.51 836.43 493.56 836.44 493.09 836.44 Z" />
<path fill="#543e47" opacity="0.69" d=" M 588.85 850.68 C 588.57 849.43 588.88 848.19 589.49 847.10 C 590.87 847.76 590.57 850.82 588.85 850.68 Z" />
</g>
<g id="#020c2aff">
<path fill="#020c2a" opacity="1.00" d=" M 347.88 219.19 C 353.22 217.13 359.20 217.18 364.87 216.92 C 418.57 217.30 472.29 216.91 526.00 217.07 C 567.38 216.98 608.76 217.30 650.13 216.89 C 652.13 216.91 654.29 216.62 656.17 217.51 C 657.21 218.13 658.42 218.53 659.65 218.19 C 661.20 217.76 662.67 217.85 664.07 218.45 C 664.84 219.21 665.75 219.47 666.81 219.23 C 667.34 219.20 668.42 219.15 668.96 219.12 C 669.47 219.31 670.49 219.68 671.00 219.86 C 673.09 219.78 675.17 220.40 677.10 221.19 C 677.61 221.36 678.63 221.70 679.13 221.87 L 679.92 222.09 C 680.42 222.27 681.42 222.63 681.92 222.81 C 686.71 224.14 691.80 225.61 695.97 228.26 C 696.41 228.54 697.28 229.09 697.72 229.37 C 700.48 229.68 703.21 230.93 705.03 233.06 C 705.51 233.28 706.47 233.72 706.95 233.93 C 710.51 235.91 714.24 237.87 716.95 240.99 C 717.55 241.96 718.44 242.72 719.55 243.06 C 724.15 245.27 728.13 248.80 731.14 252.89 C 731.48 253.85 732.13 254.51 733.10 254.88 C 733.34 255.15 733.83 255.69 734.07 255.96 C 734.38 256.98 735.06 257.63 736.10 257.92 C 738.24 259.01 739.35 261.33 740.96 263.04 C 743.33 265.61 745.50 268.35 747.47 271.26 C 747.53 271.35 747.66 271.54 747.73 271.63 C 749.36 274.14 751.01 276.63 752.58 279.19 C 752.63 279.29 752.75 279.50 752.81 279.61 C 753.09 280.25 753.64 281.52 753.91 282.15 C 754.25 283.54 754.97 284.78 756.01 285.78 C 756.28 286.37 756.83 287.55 757.10 288.13 C 757.34 289.53 757.98 290.80 758.90 291.87 C 759.10 292.18 759.50 292.79 759.70 293.09 C 761.99 298.80 764.22 304.55 766.00 310.44 L 766.13 311.24 C 766.33 313.18 766.39 315.22 767.44 316.95 C 768.04 318.04 768.37 319.22 768.43 320.48 C 768.47 322.78 769.00 325.02 769.72 327.21 L 769.81 328.10 C 769.91 330.38 770.22 332.67 770.92 334.85 L 771.14 335.65 C 772.43 343.70 772.26 351.88 772.25 360.01 C 772.30 442.34 772.25 524.67 772.24 606.99 C 772.20 618.11 770.90 629.16 769.34 640.16 C 769.17 640.56 768.82 641.38 768.64 641.79 C 768.45 642.29 768.06 643.27 767.87 643.76 C 767.81 644.48 767.69 645.91 767.63 646.63 C 766.69 649.40 765.80 652.19 765.03 655.02 L 764.78 655.64 C 763.59 658.11 762.68 660.71 762.00 663.37 C 761.75 664.21 761.43 665.03 761.05 665.84 C 760.00 667.91 759.08 670.05 758.27 672.23 C 757.73 673.61 757.13 674.97 756.37 676.24 C 755.02 678.37 753.73 680.55 752.47 682.74 C 752.27 683.05 751.88 683.66 751.68 683.97 C 750.81 685.27 749.98 686.59 749.21 687.96 C 747.64 691.00 745.59 693.82 742.96 696.03 C 741.91 696.66 741.23 697.69 741.01 698.89 C 740.78 699.98 740.16 700.75 739.14 701.20 C 738.16 701.54 737.49 702.19 737.13 703.17 C 736.72 703.55 735.88 704.31 735.47 704.69 C 734.50 705.17 733.96 705.95 733.86 707.03 C 732.88 709.02 730.64 710.16 729.09 711.72 C 727.33 713.15 725.68 714.70 724.14 716.36 C 721.62 718.81 718.99 721.25 715.97 723.07 C 715.52 723.33 714.61 723.85 714.16 724.11 C 712.41 725.83 710.15 727.07 707.88 727.97 C 707.47 728.28 706.64 728.91 706.23 729.22 L 705.99 730.03 C 705.43 730.07 704.31 730.15 703.75 730.19 C 702.31 730.07 701.16 731.01 700.22 731.97 C 699.75 732.28 698.82 732.91 698.35 733.22 C 696.53 734.13 694.69 735.01 692.85 735.88 L 692.23 736.15 C 689.74 737.03 687.27 737.96 684.82 738.92 L 684.13 739.15 C 680.95 739.95 677.81 740.91 674.70 741.91 L 674.03 742.04 C 673.54 742.24 672.58 742.64 672.10 742.84 L 671.38 743.20 C 667.81 743.57 664.30 744.25 660.76 744.79 L 659.94 744.88 C 642.68 746.63 625.31 745.75 608.00 745.99 C 530.67 745.92 453.33 745.96 376.00 745.97 C 368.10 746.14 360.25 745.09 352.37 744.76 L 351.68 744.58 C 350.48 744.12 349.21 743.88 347.94 743.95 L 347.07 743.72 C 345.83 743.20 344.52 742.95 343.19 743.02 L 342.41 742.94 C 339.15 741.90 335.88 740.93 332.59 740.02 L 331.96 739.72 C 330.42 738.82 328.73 738.21 327.01 737.80 L 326.29 737.57 C 324.64 736.79 322.94 736.15 321.16 735.80 C 320.60 735.58 319.48 735.15 318.92 734.93 C 318.45 734.69 317.51 734.20 317.04 733.95 C 311.63 731.89 306.61 728.72 301.96 725.28 C 300.22 723.84 298.38 722.52 296.46 721.35 C 294.83 720.36 293.36 719.13 292.01 717.81 C 289.96 715.83 287.86 713.89 285.63 712.13 C 283.67 710.47 281.80 708.70 280.09 706.80 C 276.01 702.30 272.77 697.10 268.44 692.83 C 268.21 692.56 267.73 692.03 267.49 691.77 C 267.43 691.68 267.30 691.52 267.24 691.43 C 266.30 690.05 265.49 688.58 264.90 687.03 C 264.40 685.21 263.51 683.50 262.11 682.23 C 260.69 680.79 259.75 678.99 258.89 677.20 C 258.08 675.43 257.21 673.70 256.20 672.05 C 255.37 670.38 253.86 668.86 253.82 666.93 C 253.63 666.42 253.26 665.41 253.08 664.91 L 253.00 664.03 C 253.14 662.93 252.80 662.02 251.99 661.31 C 250.74 660.13 250.44 658.38 249.98 656.82 C 249.50 654.72 248.96 652.63 248.38 650.57 C 248.31 650.16 248.17 649.34 248.10 648.93 C 248.23 647.85 247.96 646.88 247.28 646.04 C 247.22 645.53 247.09 644.50 247.03 643.98 C 247.16 642.68 246.90 641.39 246.29 640.24 L 245.99 639.47 C 245.47 636.57 244.90 633.69 244.30 630.82 C 243.75 628.21 243.65 625.52 243.73 622.86 C 244.37 616.93 243.99 610.95 244.04 605.00 C 243.98 523.33 244.20 441.67 244.05 360.00 C 244.15 352.21 243.82 344.40 244.31 336.62 L 244.44 335.82 C 244.80 334.29 245.03 332.73 244.82 331.18 C 244.61 326.33 245.71 321.46 247.35 316.93 C 247.96 316.04 248.14 315.08 247.88 314.05 C 247.42 312.46 248.22 310.99 249.21 309.81 C 249.97 309.04 250.25 308.13 250.07 307.07 C 250.50 303.86 251.60 300.63 253.20 297.81 C 253.94 297.04 254.26 296.14 254.17 295.09 C 254.34 293.52 255.50 292.27 256.34 290.99 C 257.16 290.15 257.70 289.09 257.89 287.92 C 258.66 284.76 260.68 282.16 262.32 279.42 C 264.34 276.11 266.11 272.55 268.92 269.81 C 269.24 269.39 269.86 268.54 270.17 268.12 C 273.26 263.73 276.86 259.67 280.65 255.87 C 282.50 254.24 284.25 252.50 285.87 250.63 C 290.17 246.29 295.02 242.45 300.01 238.93 C 300.47 238.68 301.38 238.18 301.84 237.93 C 304.95 234.78 309.24 233.21 313.05 231.09 C 319.55 227.93 326.00 224.15 333.22 222.98 C 333.62 222.70 334.43 222.13 334.84 221.84 L 335.88 222.06 C 338.08 222.73 340.16 221.42 342.13 220.62 C 342.65 220.50 343.70 220.27 344.23 220.16 C 345.52 220.25 346.76 219.84 347.88 219.19 M 503.63 269.55 C 501.88 271.12 500.18 272.74 498.46 274.34 C 494.00 278.08 493.00 284.50 493.94 289.96 C 495.29 297.26 501.78 302.97 508.97 304.19 C 518.67 305.69 528.34 297.70 529.12 287.99 C 529.93 280.29 525.35 272.08 518.14 269.03 C 513.54 266.79 508.18 267.65 503.63 269.55 M 324.78 285.30 C 320.47 286.17 316.86 289.00 313.83 292.06 C 307.25 299.06 306.77 310.28 311.43 318.44 C 313.84 322.92 318.05 326.22 322.66 328.23 C 331.31 331.63 341.83 328.94 347.97 322.01 C 351.64 318.32 352.99 313.03 353.40 308.00 C 353.52 298.72 347.76 289.42 339.00 286.02 C 334.54 284.35 329.32 283.58 324.78 285.30 M 669.71 286.48 C 653.53 289.73 640.73 304.63 639.49 321.01 C 638.16 333.99 644.15 346.14 644.86 358.96 C 646.27 382.67 640.36 406.07 633.49 428.57 C 627.02 450.43 620.18 472.18 613.85 494.08 C 607.37 515.06 600.77 536.00 595.12 557.22 C 594.61 558.56 594.31 560.33 592.69 560.77 C 590.30 562.48 587.77 559.87 587.37 557.53 C 580.18 531.22 571.87 505.23 563.94 479.13 C 557.26 458.62 551.40 437.86 544.90 417.29 C 541.95 408.32 540.09 398.57 533.88 391.12 C 523.12 378.56 501.86 377.43 489.85 388.82 C 481.73 395.84 479.85 406.88 476.75 416.59 C 472.86 428.48 469.62 440.56 465.65 452.43 C 459.84 471.12 454.42 489.94 448.47 508.59 C 444.15 523.94 439.05 539.07 435.24 554.56 C 434.52 557.35 433.85 561.33 430.15 561.27 C 426.46 559.83 426.81 555.21 425.62 552.05 C 418.40 525.38 410.20 498.99 402.36 472.50 C 395.62 450.89 389.70 429.03 382.79 407.47 C 379.23 396.19 373.45 385.40 365.00 377.02 C 352.47 364.72 332.55 360.27 316.21 367.05 C 304.62 371.79 296.07 383.37 295.35 395.93 C 294.57 406.42 299.06 417.13 307.12 423.88 C 313.24 429.19 321.54 431.94 326.20 438.88 C 331.19 446.35 333.23 455.26 335.95 463.70 C 341.03 479.56 345.89 495.48 350.72 511.42 C 364.81 556.58 378.85 601.77 392.88 646.96 C 395.66 655.53 400.00 664.09 407.42 669.54 C 417.21 677.07 431.29 678.66 442.47 673.39 C 451.70 669.35 458.02 660.59 461.49 651.39 C 464.37 643.56 466.81 635.58 469.46 627.67 C 482.48 586.44 496.29 545.46 509.32 504.24 C 510.42 504.24 511.53 504.25 512.64 504.27 C 513.94 507.44 514.94 510.73 515.99 514.00 C 528.73 555.28 542.81 596.13 555.72 637.35 C 559.04 647.55 561.87 658.50 569.66 666.36 C 582.08 680.00 605.81 679.64 618.39 666.39 C 628.08 656.39 631.00 642.27 635.48 629.55 C 658.17 559.58 681.85 489.93 703.82 419.73 C 710.94 395.77 718.09 371.59 720.63 346.63 C 722.40 330.46 720.24 312.55 709.16 299.86 C 699.91 288.42 683.97 283.39 669.71 286.48 M 406.64 296.65 C 401.24 301.26 395.92 306.43 393.18 313.13 C 391.42 317.56 389.41 322.07 389.38 326.93 C 389.27 333.35 388.81 340.03 391.11 346.16 C 393.54 353.50 398.20 359.98 404.05 364.99 C 404.95 365.70 405.85 366.54 407.03 366.78 C 408.07 368.10 409.17 369.44 410.63 370.32 C 420.71 376.48 433.19 377.90 444.65 375.62 C 455.29 373.38 464.38 366.26 470.50 357.46 C 474.69 351.68 477.30 344.50 477.33 337.38 C 478.82 324.13 474.39 310.43 465.45 300.55 C 450.25 285.49 423.50 282.89 406.64 296.65 M 569.41 296.50 C 560.93 299.10 553.99 306.97 553.44 315.94 C 552.22 327.03 560.13 338.28 571.00 340.83 C 578.27 342.93 586.17 340.50 591.95 335.88 C 602.85 326.03 600.32 305.52 587.38 298.57 C 582.08 295.32 575.30 294.56 569.41 296.50 M 576.40 375.56 C 573.38 376.60 570.96 379.15 569.82 382.10 C 568.27 387.68 572.10 394.43 577.98 395.37 C 582.59 396.40 587.08 393.32 589.43 389.55 C 590.05 385.62 590.06 380.99 586.94 378.05 C 584.45 374.87 580.02 374.82 576.40 375.56 M 425.38 430.29 C 422.13 431.98 420.38 435.54 419.68 438.98 C 419.86 443.03 421.87 447.40 425.63 449.30 C 428.49 450.08 431.59 450.02 434.48 449.40 C 438.80 448.05 441.20 443.32 440.58 438.97 C 440.48 431.80 431.47 427.32 425.38 430.29 M 583.20 434.87 C 580.62 435.89 578.48 437.90 577.12 440.30 C 574.63 445.72 577.83 453.42 583.98 454.47 C 590.03 455.74 597.03 450.54 595.76 444.00 C 596.45 437.53 589.03 432.70 583.20 434.87 M 298.45 516.88 C 297.43 517.32 295.80 517.44 295.43 518.67 C 290.85 520.25 286.99 523.33 284.76 527.67 C 278.70 535.41 279.42 547.18 285.00 555.00 C 290.47 561.89 299.05 566.87 308.04 566.32 C 314.59 565.46 321.16 562.65 325.49 557.52 C 334.49 546.31 331.36 528.43 319.85 520.16 C 313.70 515.73 305.63 515.48 298.45 516.88 M 699.40 539.45 C 697.43 542.33 695.19 545.35 695.29 549.02 C 694.57 556.51 699.69 564.04 706.88 566.21 C 717.25 570.64 730.08 561.01 729.64 549.99 C 729.85 541.49 722.53 532.78 713.63 533.38 C 708.10 532.34 702.90 535.39 699.40 539.45 M 320.32 608.33 C 309.27 610.40 300.36 618.86 295.96 628.95 C 289.92 643.88 296.49 662.47 310.27 670.64 C 318.06 675.27 327.62 676.54 336.45 674.80 C 344.44 672.42 352.03 667.67 356.47 660.45 C 366.17 645.64 361.90 623.86 347.48 613.65 C 339.55 608.56 329.60 606.42 320.32 608.33 M 508.26 608.08 C 500.80 610.15 498.84 620.74 504.08 625.98 C 507.10 629.38 512.27 629.15 516.30 628.09 C 523.23 625.49 524.56 615.49 519.50 610.51 C 516.65 607.53 512.08 606.86 508.26 608.08 M 681.79 612.02 C 677.16 613.95 673.77 617.88 670.84 621.81 C 664.09 630.79 663.92 643.80 669.68 653.32 C 671.30 655.63 672.91 658.72 675.73 659.57 C 680.69 665.88 689.48 667.28 697.05 666.67 C 705.58 667.00 713.08 661.43 717.74 654.70 C 721.36 649.34 722.26 642.60 721.51 636.28 C 721.13 625.67 713.71 616.17 704.34 611.66 C 697.17 608.72 688.90 609.11 681.79 612.02 M 496.97 654.77 C 495.43 656.45 493.91 658.14 492.49 659.91 C 484.76 668.70 486.92 683.30 495.86 690.35 C 504.12 697.88 518.43 697.32 526.14 689.21 C 531.66 683.94 533.69 675.68 531.94 668.34 C 530.16 660.17 523.80 652.74 515.39 651.14 C 509.07 649.39 502.21 650.92 496.97 654.77 Z" />
<path fill="#020c2a" opacity="1.00" d=" M 431.41 803.87 C 437.37 804.91 443.15 806.74 449.02 808.21 C 449.27 808.70 449.77 809.68 450.02 810.17 C 443.55 826.85 437.77 844.28 426.65 858.57 C 416.06 871.42 402.99 882.78 387.38 889.01 C 382.87 884.08 377.74 879.72 373.63 874.43 C 390.24 868.55 405.30 857.93 415.71 843.65 C 423.73 831.73 428.73 817.93 431.41 803.87 Z" />
<path fill="#020c2a" opacity="1.00" d=" M 573.83 806.15 C 579.53 806.06 585.23 806.08 590.93 806.14 C 590.96 806.89 591.00 808.37 591.03 809.12 C 591.05 810.61 591.01 812.11 590.82 813.62 C 589.31 822.04 589.89 830.62 590.08 839.13 C 589.99 841.77 590.35 844.55 589.49 847.10 C 588.88 848.19 588.57 849.43 588.85 850.68 C 589.43 855.39 587.82 859.97 586.40 864.39 C 583.14 874.03 577.18 882.59 569.87 889.60 C 564.71 886.49 559.79 883.03 554.76 879.73 C 565.00 872.15 571.30 860.26 573.57 847.89 C 574.12 846.80 574.49 845.60 574.19 844.41 C 573.97 842.40 573.91 840.38 574.24 838.41 C 575.59 832.02 575.06 825.47 575.17 819.00 C 575.19 815.83 574.99 812.66 574.41 809.56 C 574.21 808.41 574.01 807.27 573.83 806.15 Z" />
<path fill="#020c2a" opacity="1.00" d=" M 603.13 806.12 C 608.82 806.09 614.52 806.06 620.21 806.15 C 620.04 807.60 619.89 809.06 619.68 810.53 C 618.30 817.61 619.01 824.84 618.90 832.00 C 618.96 843.11 618.72 854.22 619.02 865.33 C 619.44 865.12 620.28 864.70 620.70 864.48 C 629.39 860.24 636.33 853.21 642.22 845.68 C 645.57 850.01 648.57 854.60 651.66 859.13 C 644.57 868.21 635.31 875.36 625.79 881.74 C 621.34 884.64 616.54 886.96 612.20 890.03 C 608.84 887.24 605.50 884.45 602.09 881.74 C 603.36 876.24 602.96 870.58 603.00 865.00 C 602.97 846.71 603.06 828.43 602.94 810.15 C 602.99 808.80 603.05 807.45 603.13 806.12 Z" />
<path fill="#020c2a" opacity="1.00" d=" M 528.88 811.28 C 532.43 809.71 535.94 808.04 539.61 806.77 C 542.89 811.99 546.41 817.09 549.15 822.63 C 545.59 824.28 542.08 826.06 538.36 827.34 C 535.80 821.65 532.32 816.46 528.88 811.28 Z" />
<path fill="#020c2a" opacity="1.00" d=" M 514.81 816.85 C 518.15 815.43 521.40 813.72 524.93 812.79 C 526.17 813.23 526.65 814.62 527.42 815.60 C 530.08 819.92 532.57 824.33 534.87 828.85 C 531.27 830.42 527.67 831.98 524.02 833.42 C 521.17 827.78 518.49 822.01 514.81 816.85 Z" />
<path fill="#020c2a" opacity="1.00" d=" M 477.39 829.46 C 481.52 824.89 484.79 818.68 491.15 816.95 C 496.07 815.55 500.80 818.44 504.23 821.73 C 520.30 837.16 535.08 853.85 550.39 870.01 C 546.00 874.97 541.65 880.00 536.87 884.59 C 526.48 872.15 516.74 859.15 505.76 847.20 C 502.31 843.47 499.29 839.27 494.99 836.43 C 494.35 835.14 493.71 835.14 493.09 836.44 C 488.78 840.47 485.65 845.49 482.26 850.26 C 477.91 856.48 473.58 862.70 469.45 869.06 C 464.56 863.97 459.46 859.08 454.66 853.92 C 462.90 846.40 470.46 838.20 477.39 829.46 Z" />
</g>
<g id="#fe9701ff">
<path fill="#fe9701" opacity="1.00" d=" M 656.17 217.51 C 656.81 216.09 659.77 216.50 659.65 218.19 C 658.42 218.53 657.21 218.13 656.17 217.51 Z" />
<path fill="#fe9701" opacity="1.00" d=" M 664.07 218.45 C 665.35 217.33 666.26 217.59 666.81 219.23 C 665.75 219.47 664.84 219.21 664.07 218.45 Z" />
<path fill="#fe9701" opacity="1.00" d=" M 344.23 220.16 C 344.14 218.48 347.06 217.82 347.88 219.19 C 346.76 219.84 345.52 220.25 344.23 220.16 Z" />
<path fill="#fe9701" opacity="1.00" d=" M 335.88 222.06 C 336.16 219.80 340.35 220.47 342.13 220.62 C 340.16 221.42 338.08 222.73 335.88 222.06 Z" />
<path fill="#fe9701" opacity="1.00" d=" M 333.18 222.12 C 333.59 222.05 334.42 221.91 334.84 221.84 C 334.43 222.13 333.62 222.70 333.22 222.98 L 333.18 222.12 Z" />
<path fill="#fe9701" opacity="1.00" d=" M 679.92 222.09 L 680.68 221.58 L 681.70 221.94 L 681.92 222.81 C 681.42 222.63 680.42 222.27 679.92 222.09 Z" />
<path fill="#fe9701" opacity="1.00" d=" M 695.97 228.26 L 696.78 227.89 L 697.68 228.46 L 697.72 229.37 C 697.28 229.09 696.41 228.54 695.97 228.26 Z" />
<path fill="#fe9701" opacity="1.00" d=" M 256.34 290.99 C 254.87 290.08 256.30 287.20 257.89 287.92 C 257.70 289.09 257.16 290.15 256.34 290.99 Z" />
<path fill="#fe9701" opacity="1.00" d=" M 569.41 296.50 C 575.30 294.56 582.08 295.32 587.38 298.57 C 600.32 305.52 602.85 326.03 591.95 335.88 C 586.17 340.50 578.27 342.93 571.00 340.83 C 560.13 338.28 552.22 327.03 553.44 315.94 C 553.99 306.97 560.93 299.10 569.41 296.50 M 568.35 299.24 C 565.17 301.49 561.69 303.43 558.97 306.26 C 557.25 308.29 559.47 310.30 560.83 311.75 C 563.94 308.82 567.34 306.25 570.89 303.89 C 572.08 302.88 574.01 301.82 573.61 299.95 C 572.81 297.69 569.90 298.03 568.35 299.24 Z" />
<path fill="#fe9701" opacity="1.00" d=" M 769.81 328.10 C 771.98 328.95 771.87 333.05 770.92 334.85 C 770.22 332.67 769.91 330.38 769.81 328.10 Z" />
<path fill="#fe9701" opacity="1.00" d=" M 771.14 335.65 C 772.43 338.23 772.10 341.16 772.21 343.95 C 772.57 357.30 772.31 370.65 772.42 384.00 C 772.51 390.33 772.08 396.68 772.92 402.98 C 773.55 410.00 772.19 416.97 772.42 424.00 C 772.42 473.67 772.47 523.34 772.43 573.01 C 772.18 589.66 772.73 606.33 771.92 622.97 C 770.98 628.68 770.90 634.57 769.34 640.16 C 770.90 629.16 772.20 618.11 772.24 606.99 C 772.25 524.67 772.30 442.34 772.25 360.01 C 772.26 351.88 772.43 343.70 771.14 335.65 Z" />
<path fill="#fe9701" opacity="1.00" d=" M 576.40 375.56 C 580.02 374.82 584.45 374.87 586.94 378.05 C 590.06 380.99 590.05 385.62 589.43 389.55 C 587.08 393.32 582.59 396.40 577.98 395.37 C 572.10 394.43 568.27 387.68 569.82 382.10 C 570.96 379.15 573.38 376.60 576.40 375.56 Z" />
<path fill="#fe9701" opacity="1.00" d=" M 583.20 434.87 C 589.03 432.70 596.45 437.53 595.76 444.00 C 597.03 450.54 590.03 455.74 583.98 454.47 C 577.83 453.42 574.63 445.72 577.12 440.30 C 578.48 437.90 580.62 435.89 583.20 434.87 Z" />
<path fill="#fe9701" opacity="1.00" d=" M 320.32 608.33 C 329.60 606.42 339.55 608.56 347.48 613.65 C 361.90 623.86 366.17 645.64 356.47 660.45 C 352.03 667.67 344.44 672.42 336.45 674.80 C 327.62 676.54 318.06 675.27 310.27 670.64 C 296.49 662.47 289.92 643.88 295.96 628.95 C 300.36 618.86 309.27 610.40 320.32 608.33 M 317.43 614.31 C 311.15 616.75 305.40 621.04 302.01 626.94 C 300.41 629.97 299.11 634.81 303.05 636.64 C 306.42 635.94 308.00 632.41 310.15 630.06 C 313.15 626.05 317.23 623.13 321.31 620.31 C 323.24 619.13 324.58 616.25 322.41 614.61 C 321.23 612.72 319.04 613.66 317.43 614.31 Z" />
<path fill="#fe9701" opacity="1.00" d=" M 767.87 643.76 C 768.06 643.27 768.45 642.29 768.64 641.79 L 769.14 642.54 C 768.82 642.84 768.19 643.45 767.87 643.76 Z" />
<path fill="#fe9701" opacity="1.00" d=" M 573.57 847.89 C 572.09 847.27 572.46 844.23 574.19 844.41 C 574.49 845.60 574.12 846.80 573.57 847.89 Z" />
</g>
<g id="#fe396bff">
<path fill="#fe396b" opacity="1.00" d=" M 705.03 233.06 L 705.81 232.58 L 706.80 233.03 L 706.95 233.93 C 706.47 233.72 705.51 233.28 705.03 233.06 Z" />
<path fill="#fe396b" opacity="1.00" d=" M 300.09 238.03 L 301.03 237.51 L 301.84 237.93 C 301.38 238.18 300.47 238.68 300.01 238.93 L 300.09 238.03 Z" />
<path fill="#fe396b" opacity="1.00" d=" M 716.95 240.99 C 718.09 239.56 720.49 241.64 719.55 243.06 C 718.44 242.72 717.55 241.96 716.95 240.99 Z" />
<path fill="#fe396b" opacity="1.00" d=" M 280.65 255.87 C 281.55 253.47 283.41 251.46 285.87 250.63 C 284.25 252.50 282.50 254.24 280.65 255.87 Z" />
<path fill="#fe396b" opacity="1.00" d=" M 734.07 255.96 C 735.74 255.58 736.42 256.23 736.10 257.92 C 735.06 257.63 734.38 256.98 734.07 255.96 Z" />
<path fill="#fe396b" opacity="1.00" d=" M 269.24 268.08 L 270.17 268.12 C 269.86 268.54 269.24 269.39 268.92 269.81 L 268.60 268.96 L 269.24 268.08 Z" />
<path fill="#fe396b" opacity="1.00" d=" M 747.47 271.26 C 747.53 271.35 747.66 271.54 747.73 271.63 C 747.66 271.54 747.53 271.35 747.47 271.26 Z" />
<path fill="#fe396b" opacity="1.00" d=" M 752.58 279.19 C 752.63 279.29 752.75 279.50 752.81 279.61 C 752.75 279.50 752.63 279.29 752.58 279.19 Z" />
<path fill="#fe396b" opacity="1.00" d=" M 753.91 282.15 C 755.67 281.49 757.30 284.53 756.01 285.78 C 754.97 284.78 754.25 283.54 753.91 282.15 Z" />
<path fill="#fe396b" opacity="1.00" d=" M 406.64 296.65 C 423.50 282.89 450.25 285.49 465.45 300.55 C 474.39 310.43 478.82 324.13 477.33 337.38 C 476.49 334.63 475.54 331.91 474.61 329.19 C 472.28 334.42 471.02 340.12 468.03 345.06 C 464.53 350.97 460.47 356.79 454.72 360.71 C 446.54 366.31 436.60 369.36 426.68 369.16 C 420.07 368.98 413.57 367.62 407.03 366.78 C 405.85 366.54 404.95 365.70 404.05 364.99 C 398.20 359.98 393.54 353.50 391.11 346.16 C 388.81 340.03 389.27 333.35 389.38 326.93 C 389.41 322.07 391.42 317.56 393.18 313.13 C 395.92 306.43 401.24 301.26 406.64 296.65 M 419.36 294.29 C 413.49 296.21 409.05 300.62 404.49 304.55 C 401.33 307.18 399.47 311.06 398.65 315.02 C 398.46 317.51 400.16 320.73 403.00 320.61 C 406.91 321.24 408.60 317.09 410.68 314.63 C 414.53 309.22 421.41 307.57 426.20 303.26 C 428.41 301.46 429.29 298.00 427.46 295.64 C 425.74 292.90 421.97 293.15 419.36 294.29 Z" />
<path fill="#fe396b" opacity="1.00" d=" M 757.10 288.13 C 758.89 287.51 760.30 290.75 758.90 291.87 C 757.98 290.80 757.34 289.53 757.10 288.13 Z" />
<path fill="#fe396b" opacity="1.00" d=" M 759.70 293.09 C 762.76 298.46 765.06 304.31 766.00 310.44 C 764.22 304.55 761.99 298.80 759.70 293.09 Z" />
<path fill="#fe396b" opacity="1.00" d=" M 253.20 297.81 C 252.15 296.34 252.47 295.43 254.17 295.09 C 254.26 296.14 253.94 297.04 253.20 297.81 Z" />
<path fill="#fe396b" opacity="1.00" d=" M 249.21 309.81 C 248.13 308.42 248.41 307.51 250.07 307.07 C 250.25 308.13 249.97 309.04 249.21 309.81 Z" />
<path fill="#fe396b" opacity="1.00" d=" M 247.35 316.93 C 246.11 315.65 246.28 314.69 247.88 314.05 C 248.14 315.08 247.96 316.04 247.35 316.93 Z" />
<path fill="#fe396b" opacity="1.00" d=" M 768.43 320.48 C 770.26 321.23 770.89 325.44 769.72 327.21 C 769.00 325.02 768.47 322.78 768.43 320.48 Z" />
<path fill="#fe396b" opacity="1.00" d=" M 425.38 430.29 C 431.47 427.32 440.48 431.80 440.58 438.97 C 441.20 443.32 438.80 448.05 434.48 449.40 C 431.59 450.02 428.49 450.08 425.63 449.30 C 421.87 447.40 419.86 443.03 419.68 438.98 C 420.38 435.54 422.13 431.98 425.38 430.29 Z" />
<path fill="#fe396b" opacity="1.00" d=" M 681.79 612.02 C 688.90 609.11 697.17 608.72 704.34 611.66 C 713.71 616.17 721.13 625.67 721.51 636.28 C 720.72 635.11 719.92 633.96 719.12 632.82 C 715.75 638.71 715.01 646.02 709.86 650.84 C 704.17 657.81 694.83 661.59 685.91 660.22 C 682.53 659.74 679.13 659.58 675.73 659.57 C 672.91 658.72 671.30 655.63 669.68 653.32 C 663.92 643.80 664.09 630.79 670.84 621.81 C 673.77 617.88 677.16 613.95 681.79 612.02 M 683.35 614.17 C 679.41 615.92 675.57 618.61 673.59 622.54 C 672.70 624.83 674.87 626.96 677.01 627.37 C 679.24 626.73 680.67 624.79 682.32 623.31 C 684.17 621.44 686.43 620.06 688.36 618.29 C 689.02 616.86 688.75 615.06 687.87 613.80 C 686.38 613.22 684.73 613.49 683.35 614.17 Z" />
<path fill="#fe396b" opacity="1.00" d=" M 244.30 630.82 C 244.90 633.69 245.47 636.57 245.99 639.47 C 244.32 636.92 244.92 633.68 244.30 630.82 Z" />
<path fill="#fe396b" opacity="1.00" d=" M 247.28 646.04 C 247.96 646.88 248.23 647.85 248.10 648.93 C 246.45 648.41 246.18 647.45 247.28 646.04 Z" />
<path fill="#fe396b" opacity="1.00" d=" M 765.03 655.02 C 765.80 652.19 766.69 649.40 767.63 646.63 C 767.24 649.52 766.93 652.66 765.03 655.02 Z" />
<path fill="#fe396b" opacity="1.00" d=" M 248.38 650.57 C 248.96 652.63 249.50 654.72 249.98 656.82 C 249.02 654.86 248.65 652.70 248.38 650.57 Z" />
<path fill="#fe396b" opacity="1.00" d=" M 496.97 654.77 C 502.21 650.92 509.07 649.39 515.39 651.14 C 523.80 652.74 530.16 660.17 531.94 668.34 C 531.21 668.37 529.75 668.43 529.02 668.46 C 526.85 675.85 523.32 683.35 516.59 687.61 C 510.55 691.95 502.78 690.38 495.86 690.35 C 486.92 683.30 484.76 668.70 492.49 659.91 C 493.21 660.85 493.95 661.79 494.69 662.74 C 496.91 662.07 499.38 661.72 501.18 660.14 C 501.74 658.21 501.24 656.18 501.16 654.23 C 499.75 654.40 498.36 654.58 496.97 654.77 Z" />
<path fill="#fe396b" opacity="1.00" d=" M 251.99 661.31 C 252.80 662.02 253.14 662.93 253.00 664.03 C 251.35 663.63 251.02 662.72 251.99 661.31 Z" />
<path fill="#fe396b" opacity="1.00" d=" M 253.08 664.91 C 253.26 665.41 253.63 666.42 253.82 666.93 L 252.95 666.71 L 252.57 665.68 L 253.08 664.91 Z" />
<path fill="#fe396b" opacity="1.00" d=" M 758.27 672.23 C 759.08 670.05 760.00 667.91 761.05 665.84 C 760.50 668.10 760.17 670.64 758.27 672.23 Z" />
<path fill="#fe396b" opacity="1.00" d=" M 256.20 672.05 C 257.21 673.70 258.08 675.43 258.89 677.20 C 257.01 676.09 256.52 674.03 256.20 672.05 Z" />
<path fill="#fe396b" opacity="1.00" d=" M 752.47 682.74 C 753.73 680.55 755.02 678.37 756.37 676.24 C 755.32 678.54 754.09 680.78 752.47 682.74 Z" />
<path fill="#fe396b" opacity="1.00" d=" M 262.11 682.23 C 263.51 683.50 264.40 685.21 264.90 687.03 C 262.73 688.04 261.58 683.69 262.11 682.23 Z" />
<path fill="#fe396b" opacity="1.00" d=" M 749.21 687.96 C 749.98 686.59 750.81 685.27 751.68 683.97 C 751.57 684.59 751.35 685.84 751.24 686.46 C 750.56 686.95 749.88 687.45 749.21 687.96 Z" />
<path fill="#fe396b" opacity="1.00" d=" M 267.24 691.43 C 267.30 691.52 267.43 691.68 267.49 691.77 C 267.43 691.68 267.30 691.52 267.24 691.43 Z" />
<path fill="#fe396b" opacity="1.00" d=" M 268.44 692.83 C 272.77 697.10 276.01 702.30 280.09 706.80 C 277.02 704.29 275.06 700.77 272.28 697.98 C 270.81 696.42 269.17 694.90 268.44 692.83 Z" />
<path fill="#fe396b" opacity="1.00" d=" M 741.01 698.89 C 741.23 697.69 741.91 696.66 742.96 696.03 C 744.25 697.10 742.43 699.59 741.01 698.89 Z" />
<path fill="#fe396b" opacity="1.00" d=" M 737.13 703.17 C 737.49 702.19 738.16 701.54 739.14 701.20 C 739.52 702.93 738.85 703.59 737.13 703.17 Z" />
<path fill="#fe396b" opacity="1.00" d=" M 733.86 707.03 C 733.96 705.95 734.50 705.17 735.47 704.69 C 736.06 706.33 735.53 707.11 733.86 707.03 Z" />
<path fill="#fe396b" opacity="1.00" d=" M 285.63 712.13 C 287.86 713.89 289.96 715.83 292.01 717.81 C 289.86 715.97 286.87 714.79 285.63 712.13 Z" />
<path fill="#fe396b" opacity="1.00" d=" M 724.14 716.36 C 725.68 714.70 727.33 713.15 729.09 711.72 C 728.11 713.85 726.32 715.51 724.14 716.36 Z" />
<path fill="#fe396b" opacity="1.00" d=" M 296.46 721.35 C 298.38 722.52 300.22 723.84 301.96 725.28 C 299.71 724.63 297.39 723.69 296.46 721.35 Z" />
<path fill="#fe396b" opacity="1.00" d=" M 714.16 724.11 C 714.61 723.85 715.52 723.33 715.97 723.07 L 715.91 723.97 L 714.98 724.51 L 714.16 724.11 Z" />
<path fill="#fe396b" opacity="1.00" d=" M 700.22 731.97 C 701.16 731.01 702.31 730.07 703.75 730.19 C 704.39 731.92 701.30 733.24 700.22 731.97 Z" />
<path fill="#fe396b" opacity="1.00" d=" M 692.85 735.88 C 694.69 735.01 696.53 734.13 698.35 733.22 C 698.19 733.72 697.87 734.71 697.71 735.21 C 696.09 735.43 694.47 735.70 692.85 735.88 Z" />
<path fill="#fe396b" opacity="1.00" d=" M 317.04 733.95 C 317.51 734.20 318.45 734.69 318.92 734.93 L 318.12 735.37 L 317.16 734.87 L 317.04 733.95 Z" />
<path fill="#fe396b" opacity="1.00" d=" M 684.82 738.92 C 687.27 737.96 689.74 737.03 692.23 736.15 C 690.49 738.39 687.62 739.59 684.82 738.92 Z" />
<path fill="#fe396b" opacity="1.00" d=" M 327.01 737.80 C 328.73 738.21 330.42 738.82 331.96 739.72 C 330.61 741.13 326.88 739.70 327.01 737.80 Z" />
<path fill="#fe396b" opacity="1.00" d=" M 674.70 741.91 C 677.81 740.91 680.95 739.95 684.13 739.15 C 681.25 740.76 678.02 741.91 674.70 741.91 Z" />
<path fill="#fe396b" opacity="1.00" d=" M 332.59 740.02 C 335.88 740.93 339.15 741.90 342.41 742.94 C 338.93 743.08 335.68 741.42 332.59 740.02 Z" />
<path fill="#fe396b" opacity="1.00" d=" M 343.19 743.02 C 344.52 742.95 345.83 743.20 347.07 743.72 C 346.26 744.99 343.07 744.80 343.19 743.02 Z" />
<path fill="#fe396b" opacity="1.00" d=" M 660.76 744.79 C 664.30 744.25 667.81 743.57 671.38 743.20 C 668.09 744.68 664.35 745.54 660.76 744.79 Z" />
</g>
<g id="#43c4feff">
<path fill="#43c4fe" opacity="1.00" d=" M 503.63 269.55 C 508.18 267.65 513.54 266.79 518.14 269.03 C 525.35 272.08 529.93 280.29 529.12 287.99 C 528.34 297.70 518.67 305.69 508.97 304.19 C 501.78 302.97 495.29 297.26 493.94 289.96 C 493.00 284.50 494.00 278.08 498.46 274.34 C 500.63 275.20 503.17 278.75 505.49 276.50 C 506.94 274.95 507.25 272.69 507.98 270.76 C 506.52 270.36 505.07 269.96 503.63 269.55 Z" />
<path fill="#43c4fe" opacity="1.00" d=" M 324.78 285.30 C 329.32 283.58 334.54 284.35 339.00 286.02 C 347.76 289.42 353.52 298.72 353.40 308.00 C 352.99 313.03 351.64 318.32 347.97 322.01 C 341.83 328.94 331.31 331.63 322.66 328.23 C 318.05 326.22 313.84 322.92 311.43 318.44 C 306.77 310.28 307.25 299.06 313.83 292.06 C 314.89 293.30 315.95 294.55 317.00 295.81 C 321.59 293.34 327.53 291.41 328.97 285.75 C 327.57 285.58 326.17 285.43 324.78 285.30 Z" />
<path fill="#43c4fe" opacity="1.00" d=" M 298.45 516.88 C 305.63 515.48 313.70 515.73 319.85 520.16 C 331.36 528.43 334.49 546.31 325.49 557.52 C 321.16 562.65 314.59 565.46 308.04 566.32 C 299.05 566.87 290.47 561.89 285.00 555.00 C 279.42 547.18 278.70 535.41 284.76 527.67 C 286.86 528.18 289.29 529.96 291.34 528.35 C 294.31 526.10 294.23 521.91 295.43 518.67 C 295.80 517.44 297.43 517.32 298.45 516.88 Z" />
<path fill="#43c4fe" opacity="1.00" d=" M 713.63 533.38 C 722.53 532.78 729.85 541.49 729.64 549.99 C 730.08 561.01 717.25 570.64 706.88 566.21 C 699.69 564.04 694.57 556.51 695.29 549.02 C 695.19 545.35 697.43 542.33 699.40 539.45 C 700.87 540.30 702.45 542.33 704.32 541.21 C 708.18 538.82 711.39 535.37 715.80 533.87 C 715.07 533.69 714.35 533.53 713.63 533.38 Z" />
<path fill="#43c4fe" opacity="1.00" d=" M 508.26 608.08 C 512.08 606.86 516.65 607.53 519.50 610.51 C 524.56 615.49 523.23 625.49 516.30 628.09 C 512.27 629.15 507.10 629.38 504.08 625.98 C 498.84 620.74 500.80 610.15 508.26 608.08 Z" />
</g>
<g id="#fdfdfcff">
<path fill="#fdfdfc" opacity="1.00" d=" M 498.46 274.34 C 500.18 272.74 501.88 271.12 503.63 269.55 C 505.07 269.96 506.52 270.36 507.98 270.76 C 507.25 272.69 506.94 274.95 505.49 276.50 C 503.17 278.75 500.63 275.20 498.46 274.34 Z" />
<path fill="#fdfdfc" opacity="1.00" d=" M 313.83 292.06 C 316.86 289.00 320.47 286.17 324.78 285.30 C 326.17 285.43 327.57 285.58 328.97 285.75 C 327.53 291.41 321.59 293.34 317.00 295.81 C 315.95 294.55 314.89 293.30 313.83 292.06 Z" />
<path fill="#fdfdfc" opacity="1.00" d=" M 669.71 286.48 C 683.97 283.39 699.91 288.42 709.16 299.86 C 720.24 312.55 722.40 330.46 720.63 346.63 C 718.09 371.59 710.94 395.77 703.82 419.73 C 681.85 489.93 658.17 559.58 635.48 629.55 C 631.00 642.27 628.08 656.39 618.39 666.39 C 605.81 679.64 582.08 680.00 569.66 666.36 C 561.87 658.50 559.04 647.55 555.72 637.35 C 542.81 596.13 528.73 555.28 515.99 514.00 C 514.94 510.73 513.94 507.44 512.64 504.27 C 511.53 504.25 510.42 504.24 509.32 504.24 C 496.29 545.46 482.48 586.44 469.46 627.67 C 466.81 635.58 464.37 643.56 461.49 651.39 C 458.02 660.59 451.70 669.35 442.47 673.39 C 431.29 678.66 417.21 677.07 407.42 669.54 C 400.00 664.09 395.66 655.53 392.88 646.96 C 378.85 601.77 364.81 556.58 350.72 511.42 C 345.89 495.48 341.03 479.56 335.95 463.70 C 333.23 455.26 331.19 446.35 326.20 438.88 C 321.54 431.94 313.24 429.19 307.12 423.88 C 299.06 417.13 294.57 406.42 295.35 395.93 C 296.07 383.37 304.62 371.79 316.21 367.05 C 332.55 360.27 352.47 364.72 365.00 377.02 C 373.45 385.40 379.23 396.19 382.79 407.47 C 389.70 429.03 395.62 450.89 402.36 472.50 C 410.20 498.99 418.40 525.38 425.62 552.05 C 426.81 555.21 426.46 559.83 430.15 561.27 C 433.85 561.33 434.52 557.35 435.24 554.56 C 439.05 539.07 444.15 523.94 448.47 508.59 C 454.42 489.94 459.84 471.12 465.65 452.43 C 469.62 440.56 472.86 428.48 476.75 416.59 C 479.85 406.88 481.73 395.84 489.85 388.82 C 501.86 377.43 523.12 378.56 533.88 391.12 C 540.09 398.57 541.95 408.32 544.90 417.29 C 551.40 437.86 557.26 458.62 563.94 479.13 C 571.87 505.23 580.18 531.22 587.37 557.53 C 587.77 559.87 590.30 562.48 592.69 560.77 C 594.31 560.33 594.61 558.56 595.12 557.22 C 600.77 536.00 607.37 515.06 613.85 494.08 C 620.18 472.18 627.02 450.43 633.49 428.57 C 640.36 406.07 646.27 382.67 644.86 358.96 C 644.15 346.14 638.16 333.99 639.49 321.01 C 640.73 304.63 653.53 289.73 669.71 286.48 Z" />
<path fill="#fdfdfc" opacity="1.00" d=" M 419.36 294.29 C 421.97 293.15 425.74 292.90 427.46 295.64 C 429.29 298.00 428.41 301.46 426.20 303.26 C 421.41 307.57 414.53 309.22 410.68 314.63 C 408.60 317.09 406.91 321.24 403.00 320.61 C 400.16 320.73 398.46 317.51 398.65 315.02 C 399.47 311.06 401.33 307.18 404.49 304.55 C 409.05 300.62 413.49 296.21 419.36 294.29 Z" />
<path fill="#fdfdfc" opacity="1.00" d=" M 568.35 299.24 C 569.90 298.03 572.81 297.69 573.61 299.95 C 574.01 301.82 572.08 302.88 570.89 303.89 C 567.34 306.25 563.94 308.82 560.83 311.75 C 559.47 310.30 557.25 308.29 558.97 306.26 C 561.69 303.43 565.17 301.49 568.35 299.24 Z" />
<path fill="#fdfdfc" opacity="1.00" d=" M 766.13 311.24 C 768.34 310.93 768.40 315.51 767.44 316.95 C 766.39 315.22 766.33 313.18 766.13 311.24 Z" />
<path fill="#fdfdfc" opacity="1.00" d=" M 284.76 527.67 C 286.99 523.33 290.85 520.25 295.43 518.67 C 294.23 521.91 294.31 526.10 291.34 528.35 C 289.29 529.96 286.86 528.18 284.76 527.67 Z" />
<path fill="#fdfdfc" opacity="1.00" d=" M 699.40 539.45 C 702.90 535.39 708.10 532.34 713.63 533.38 C 714.35 533.53 715.07 533.69 715.80 533.87 C 711.39 535.37 708.18 538.82 704.32 541.21 C 702.45 542.33 700.87 540.30 699.40 539.45 Z" />
<path fill="#fdfdfc" opacity="1.00" d=" M 317.43 614.31 C 319.04 613.66 321.23 612.72 322.41 614.61 C 324.58 616.25 323.24 619.13 321.31 620.31 C 317.23 623.13 313.15 626.05 310.15 630.06 C 308.00 632.41 306.42 635.94 303.05 636.64 C 299.11 634.81 300.41 629.97 302.01 626.94 C 305.40 621.04 311.15 616.75 317.43 614.31 Z" />
<path fill="#fdfdfc" opacity="1.00" d=" M 683.35 614.17 C 684.73 613.49 686.38 613.22 687.87 613.80 C 688.75 615.06 689.02 616.86 688.36 618.29 C 686.43 620.06 684.17 621.44 682.32 623.31 C 680.67 624.79 679.24 626.73 677.01 627.37 C 674.87 626.96 672.70 624.83 673.59 622.54 C 675.57 618.61 679.41 615.92 683.35 614.17 Z" />
<path fill="#fdfdfc" opacity="1.00" d=" M 496.97 654.77 C 498.36 654.58 499.75 654.40 501.16 654.23 C 501.24 656.18 501.74 658.21 501.18 660.14 C 499.38 661.72 496.91 662.07 494.69 662.74 C 493.95 661.79 493.21 660.85 492.49 659.91 C 493.91 658.14 495.43 656.45 496.97 654.77 Z" />
</g>
<g id="#f91b50ff">
<path fill="#f91b50" opacity="1.00" d=" M 468.03 345.06 C 471.02 340.12 472.28 334.42 474.61 329.19 C 475.54 331.91 476.49 334.63 477.33 337.38 C 477.30 344.50 474.69 351.68 470.50 357.46 C 464.38 366.26 455.29 373.38 444.65 375.62 C 433.19 377.90 420.71 376.48 410.63 370.32 C 409.17 369.44 408.07 368.10 407.03 366.78 C 413.57 367.62 420.07 368.98 426.68 369.16 C 436.60 369.36 446.54 366.31 454.72 360.71 C 460.47 356.79 464.53 350.97 468.03 345.06 Z" />
<path fill="#f91b50" opacity="1.00" d=" M 709.86 650.84 C 715.01 646.02 715.75 638.71 719.12 632.82 C 719.92 633.96 720.72 635.11 721.51 636.28 C 722.26 642.60 721.36 649.34 717.74 654.70 C 713.08 661.43 705.58 667.00 697.05 666.67 C 689.48 667.28 680.69 665.88 675.73 659.57 C 679.13 659.58 682.53 659.74 685.91 660.22 C 694.83 661.59 704.17 657.81 709.86 650.84 Z" />
<path fill="#f91b50" opacity="1.00" d=" M 529.02 668.46 C 529.75 668.43 531.21 668.37 531.94 668.34 C 533.69 675.68 531.66 683.94 526.14 689.21 C 518.43 697.32 504.12 697.88 495.86 690.35 C 502.78 690.38 510.55 691.95 516.59 687.61 C 523.32 683.35 526.85 675.85 529.02 668.46 Z" />
</g>
</svg>
