<svg xmlns="http://www.w3.org/2000/svg" xmlns:xlink="http://www.w3.org/1999/xlink" version="1.1" x="0px" y="0px" viewBox="0 0 100 125" enable-background="new 0 0 100 100" xml:space="preserve"><path d="M34.506,15.887c-0.016,0.219,0.461,0.957,0.609,1.141c0.149,0.184,0.234,0.524,0.291,0.673  c0.057,0.149,0.064,1.162,0.106,1.431s-0.539,0.879,0.269,1.162c0.808,0.283,0.934,0.581,0.906,0.135  c-0.028-0.446-0.595-0.9-0.531-1.134c0.064-0.234,0.241-1.318,0.021-1.729c-0.22-0.411-0.907-1.431-1.205-1.594  C34.676,15.809,34.52,15.696,34.506,15.887z"/><path d="M56.933,48.693c-0.266,0.072-0.51,0.277-0.691,0.666c-0.279,0.601-0.03,1.298,0.11,1.946  c0.568,2.63-0.967,5.517-3.405,6.656c-2.438,1.139-5.538,0.527-7.473-1.343s-2.663-4.842-1.968-7.441  c0.695-2.599,2.729-4.765,5.221-5.78c7.582-3.088,14.738,4.409,13.875,11.907c-0.563,4.893-4.696,8.964-9.435,9.987  c-4.618,0.997-9.68-0.808-12.788-4.367c-2.722-3.116-3.951-7.482-3.254-11.56s3.305-7.789,6.907-9.825  c2.715-1.535,5.925-2.007,9.001-1.669c3.098,0.34,6.14,1.481,8.649,3.338c2.679,1.982,3.492,2.668,5.017,5.9  c0.658,1.394,1.692,6.292,1.757,6.286c0.079-0.007,0.075-4.254-0.803-6.613c-1.007-2.704-3.031-5.962-6.015-8.018  c-1.208-0.832-2.538-1.487-3.917-1.982c-5.759-2.07-9.881-1.562-13.589-0.301c-3.708,1.261-7.34,5.872-8.47,9.185  s-1.261,6.286-0.791,9.223c0.471,2.936,1.863,5.929,4.216,8.489c5.527,6.014,16.288,6.821,21.89,0.358  c1.936-2.233,4.165-5.719,4.348-8.79c0.205-3.439-0.565-7.143-2.845-9.863c-2.421-2.888-6.285-4.953-10.066-5.081  c-2.37-0.081-4.838,0.427-6.841,1.777c-2.029,1.368-3.485,3.566-4.26,5.863c-0.645,1.912-0.824,4.001-0.351,5.973  c0.74,3.083,3.024,5.777,5.983,6.913c2.96,1.136,6.515,0.636,8.981-1.356c1.845-1.49,3.006-3.785,3.167-6.146  c0.07-1.031,0.001-2.212-0.406-3.174C58.394,49.158,57.595,48.514,56.933,48.693z"/><path d="M31.028,41.475c-0.017,0.018-0.025,0.044-0.025,0.069c-0.015,0.713,0.003,1.437,0.013,2.152  c0.009,0.662,0.012,1.331,0.085,1.99c0.012,0.108,0.009,0.306,0.088,0.393c0.226,0.251,0.452-0.05,0.502-0.703  s1.054-4.266,1.23-4.743s1.23-2.635,2.058-3.313c0.828-0.678,1.493-1.104,1.769-1.556c0.276-0.452,0.602-1.568,0.552-1.907  l1.468-0.125c0,0,1.769-1.757,2.823-2.321c1.054-0.565,1.744-0.54,2.271-0.477c0.527,0.063,0.966-0.032,0.966-0.032v-0.32  c0,0-0.991-1.343-1.104-2.058s0.063-2.773-0.025-2.924c-0.088-0.151-0.351-0.414-0.389-0.226s-0.013,0.565,0.013,1.004  s-0.163,1.029-0.276,1.292c-0.113,0.264-0.276,0.791-0.038,1.179c0.238,0.389,0.602,0.954,0.602,1.129s0.038,0.238-0.138,0.276  s-1.292,0.201-1.606,0.427c-0.314,0.226-1.506,0.841-1.681,0.954s-0.289,0.289-0.402,0.075s-0.414-0.966-0.728-0.878  c-0.314,0.088-0.765,0.314-0.703,0.803c0.063,0.489,0.276,1.129,0.038,1.318c-0.238,0.188,0.264,0.314-0.929-0.013  s-1.267-0.565-1.456-0.477c-0.188,0.088-0.364,0.163-0.226,0.402c0.138,0.238,0.615,1.029,0.54,1.355s-0.477,1.252-0.678,1.517  c-0.201,0.265-1.669,1.733-1.97,2.335c-0.301,0.602-1.43,2.723-1.581,3.087c-0.151,0.364-0.226,0.791-0.389,0.715  c-0.107-0.049-0.146-0.201-0.201-0.294c-0.103-0.175-0.208-0.16-0.396-0.136C31.083,41.448,31.06,41.451,31.028,41.475z"/><path d="M32.038,39.162c0,0-0.226,0.499-0.198,0.706s0.254,0.395,0.367,0.16s0.141-0.706,0.245-0.941s0.583-0.979,0.791-1.176  s0.48-0.169,0.48-0.8c0-0.631,0.461-2.052,0.32-2.099c-0.141-0.047-0.913,0.781-1.148,0.979c-0.235,0.198-0.781,0.772-0.762,1.063  S32.095,38.673,32.038,39.162z"/><path d="M35.05,32.386c0,0-0.508,1.026-0.518,1.27s-0.113,0.452,0,0.64c0.025,0.041,0.069,0.133,0.128,0.122  c0.025-0.005,0.047-0.022,0.066-0.04c0.266-0.246,0.433-0.703,0.502-1.052c0.039-0.193,0.06-0.393,0.041-0.589  c-0.009-0.09-0.022-0.193-0.062-0.276C35.192,32.43,35.093,32.299,35.05,32.386z"/><path d="M42.036,28.332c0.08-0.147,0.265-0.198,0.317-0.146c0.052,0.052-0.043,0.505-0.043,0.666c0,0.161-0.014,0.789-0.151,0.94  s-1.153,1.124-1.365,1.223c-0.213,0.099-0.345,0.165-0.312,0c0.033-0.165,0.572-0.898,0.723-1.181S41.927,28.531,42.036,28.332z"/><path d="M45.567,29.024c-0.082,0.049-0.035,0.213,0.057,0.354c0.092,0.142,0.22,0.51,0.397,0.609s0.432-0.099,0.971,0  s0.595,0.113,0.723,0.191c0.128,0.078,0.276,0.057,0.241-0.113c-0.035-0.17-0.156-0.283-0.283-0.442  c-0.128-0.16-0.234-0.302-0.496-0.316s-0.69,0.038-0.86,0.017c-0.17-0.021-0.286,0.078-0.392-0.113  C45.817,29.02,45.638,28.982,45.567,29.024z"/><path d="M46.197,27.841c0.005,0.1,0.104,0.128,0.156,0.279s0.019,0.189,0.099,0.302c0.08,0.113,0.364,0.194,0.472,0.113  c0.109-0.08,0.175-0.293,0.104-0.378c-0.071-0.085-0.25-0.184-0.34-0.269c-0.09-0.085-0.151-0.161-0.241-0.161  C46.358,27.728,46.193,27.737,46.197,27.841z"/><path d="M47.79,27.826c-0.049,0.025-0.095,0.06-0.135,0.099c-0.068,0.066-0.183,0.205-0.145,0.31  c0.027,0.075,0.191,0.095,0.254,0.106c0.124,0.022,0.278,0.042,0.403,0.013c0.085-0.02,0.172-0.07,0.255-0.101  c0.086-0.033,0.173-0.064,0.261-0.093c0.175-0.059,0.352-0.112,0.531-0.158c0.56-0.144,1.142-0.21,1.719-0.24  c0.182-0.009,0.366-0.014,0.547,0.012c0.239,0.035,0.426,0.159,0.647,0.239c0.111,0.04,0.224,0.077,0.34,0.098  c0.065,0.012,0.159,0.03,0.219-0.008c0.132-0.085,0.132-0.499,0.122-0.64c-0.009-0.141,0.038-0.32,0.122-0.423  s0.085-0.226-0.085-0.235c-0.254-0.014-0.51-0.012-0.765-0.016c-0.462-0.007-0.923-0.013-1.385-0.015  c-0.213-0.001-0.426-0.001-0.639,0.001c-0.085,0.001-0.171,0.002-0.256,0.004c-0.113,0.003-0.229-0.01-0.335,0.037  c-0.034,0.015-0.065,0.034-0.095,0.056c-0.089,0.066-0.158,0.153-0.228,0.239c-0.074,0.09-0.163,0.163-0.239,0.248  c-0.086,0.097-0.178,0.19-0.282,0.268c-0.088,0.066-0.187,0.12-0.292,0.153c-0.05,0.015-0.113,0.035-0.166,0.03  c-0.052-0.004-0.104-0.022-0.157-0.028C47.929,27.774,47.856,27.792,47.79,27.826z"/><path d="M48.692,29.616c-0.036-0.095,1.284-0.979,1.552-1.048s1.698,0.018,1.987,0c0.289-0.018,0.67,0,0.755-0.198  c0.086-0.197,0.123-0.661,0.449-0.9s1.368-0.615,1.543-0.878c0.176-0.264,0.351-0.715,0.565-0.728  c0.213-0.013,0.238,0.151,0.213,0.251c-0.025,0.1-0.264,0.891-0.514,1.117S54,28.173,53.937,28.437  c-0.063,0.264-0.138,1.518-0.113,1.669h-0.502c0,0-0.289-0.44-0.703-0.465C52.206,29.616,48.729,29.711,48.692,29.616z"/><path d="M55.765,24.685c0,0-0.148,0.231-0.129,0.439c0.019,0.208,0.109,0.25,0.189,0.283c0.08,0.033,0.321-0.118,0.298-0.279  c-0.024-0.161,0.024-0.246,0.085-0.288c0.061-0.043,0.189-0.26,0.047-0.331S55.825,24.569,55.765,24.685z"/><path d="M56.319,29.958c0,0-0.038,0.278,0.061,0.32s0.482,0.099,0.624-0.028c0.142-0.128,0.652-0.354,0.942-0.631  s0.964-1.091,0.992-1.198c0.028-0.106,0.113-0.276,0-0.312c0,0-0.886,0.773-1.12,1.109s-0.432,0.535-0.638,0.591  c-0.205,0.057-0.475,0.213-0.624,0.128S56.325,29.886,56.319,29.958z"/><path d="M56.869,25.942c-0.05,0.22,0.762,0.964,0.785,1.24s0.051,0.446,0.207,0.432c0.156-0.014,1.878-0.184,1.892,0.028  s-0.177,0.39-0.191,0.666s-0.439,1.474-0.319,2.267s0.135,0.588,0.34,0.709c0.205,0.12,0.347-0.177,0.347-0.439  s-0.05-1.516,0.128-1.899c0.177-0.383,0.957-1.169,1.155-1.297c0.198-0.128,1.049-0.248,0.815-0.453  c-0.234-0.205-1.715,0.014-2.133-0.106c-0.418-0.12-2.097-0.666-2.409-0.964C57.173,25.829,56.918,25.722,56.869,25.942z"/><path d="M60.379,31.508c-0.021,0.016-0.041,0.035-0.057,0.058c-0.05,0.072-0.11,0.185-0.042,0.265  c0.104,0.122,1.468,0.094,1.609,0.198c0.141,0.104,0.508,0.489,0.442,0.791c-0.066,0.301-0.311,0.979-0.141,0.998  c0.169,0.019,0.64-0.386,0.951-0.461c0.311-0.075,1.336-0.226,1.383-0.038c0.047,0.188,0.282,0.226,0.678,0.188  s1.176-0.593,1.365-0.8s1.223-0.696,1.186-0.828c-0.038-0.132,0.047-0.348-0.301-0.226c-0.348,0.122-1.703,0.866-2.381,0.866  s-1.75,0.216-1.882-0.085c-0.142-0.324-0.165-0.749-0.514-0.929c-0.178-0.092-0.387-0.097-0.587-0.101  c-0.508-0.009-1.019-0.042-1.522,0.037C60.498,31.451,60.432,31.47,60.379,31.508z"/><path d="M65.804,33.817c0,0.272,0.348,0.752,0.311,0.95s-0.292,0.678-0.367,0.772s-0.056,0.254,0.075,0.169s0.988-0.188,1.063-0.104  s0.254,0.236,0.301,0.127c0.047-0.109,0.113-0.269-0.038-0.4C67,35.2,67.037,35.046,67.018,34.794s-0.009-1.081,0.028-1.203  s-0.104-0.311-0.188-0.198c-0.085,0.113-0.169,0.198-0.292,0.198C66.444,33.591,65.804,33.545,65.804,33.817z"/><path d="M68.263,31.441c-0.058,0.048-0.043,0.078,0,0.198c0.043,0.12,0.12,0.255,0.262,0.22c0.142-0.035,0.446-0.072,0.397-0.206  c-0.05-0.134-0.014-0.293-0.198-0.263C68.539,31.419,68.348,31.37,68.263,31.441z"/><path d="M71.263,42.127c-0.148,0.035-0.198,0.216-0.085,0.358s0.423,0.264,0.423,0.442c0,0.179-0.094,0.339,0.038,0.273  s0.132-0.216,0.358-0.104s0.386,0.028,0.461,0.452c0.075,0.423,0.132,0.583,0.264,0.405c0.132-0.179,0.056-0.631,0.132-0.988  c0.075-0.358,0.376-0.367,0.376-0.715s-0.019-0.367-0.216-0.216c-0.198,0.151-0.809,0.367-1.054,0.226S71.498,42.07,71.263,42.127z"/><path d="M72.797,40.263c0,0-0.207,0.395-0.132,0.574c0.075,0.179,0.386,0.245,0.518,0c0.132-0.245,0.499-0.358,0.414-0.518  s-0.239-0.433-0.468-0.329S72.894,40.035,72.797,40.263z"/><path d="M73.056,38.487c0,0,0.043,0.475-0.064,0.56c-0.106,0.085-0.563,0.361-0.691,0.464c-0.128,0.103-0.191,0.319-0.092,0.397  c0.099,0.078,0.563,0.011,0.733-0.12s0.514-0.329,0.468-0.489c-0.04-0.137,0.027-0.281,0.037-0.417  c0.01-0.141-0.049-0.285-0.139-0.391C73.244,38.413,73.123,38.408,73.056,38.487z"/><path d="M71.969,44.134c-0.131-0.393,0.133-0.232,0.204-0.11s0.724,1.289,0.9,1.277c0.176-0.013,1.179-0.778,1.343-0.941  c0.163-0.163,0.264-0.226,0.326-0.063c0.063,0.163-0.075,0.452-0.289,0.59c-0.213,0.138-0.891,0.954-0.954,1.23  c-0.063,0.276-0.439,2.045-0.565,2.271c-0.125,0.226-0.527,0.251-0.565-0.1c-0.038-0.351,0.201-2.748,0.1-3.024  C72.37,44.987,72.094,44.511,71.969,44.134z"/><path d="M26.89,58.407c-0.094,0.094-0.075,0.264,0.075,0.339s0.565-0.113,0.659,0s0,0.32,0,0.527c0,0.207,0.188,0.546,0.508,0.339  c0.32-0.207,1.148-1.732,1.28-1.732c0.132,0,0.113,0.132,0.32,0.471c0.207,0.339,0.734,0.976,0.791,1.326s0.094,1.272,0.264,1.347  s0.96,0.508,1.016,0.734s-0.038,0.339,0.094,0.527c0.132,0.188,0.979,0.922,1.167,0.979c0.188,0.056,0.452,0.188,0.32-0.151  s-1.148-1.148-1.43-1.863c-0.282-0.715-1.901-4.103-1.939-4.705c-0.038-0.602,0.169-2.466-0.056-2.597  c-0.226-0.132-0.659,0-0.602,0.264c0.056,0.264-0.678,2.804-0.941,3.068C28.152,57.542,27.173,58.125,26.89,58.407z"/><path d="M26.307,61.042c-0.29,0.176-0.038,0.414-0.245,0.565c-0.207,0.151-0.64,0.715-0.583,0.772  c0.056,0.056,0.753,0.047,0.772-0.038c0.019-0.085,0.038-0.282,0.179-0.254s0.169,0.207,0.301,0.207c0.132,0,1.195,0.005,1.468,0.12  c0.273,0.115,0.706,0.548,0.847,0.444s0.423-0.367,0.292-0.471c-0.132-0.104-0.838-0.511-1.252-0.455s-0.687,0.097-0.762-0.101  S26.74,60.779,26.307,61.042z"/><path d="M28.745,59.968c0,0,0.673-0.595,0.758-0.616c0.085-0.021,0.213,0.028,0.22,0.163s0.17,0.751,0.241,0.872  c0.071,0.12,0.105,0.73,0.162,0.9c0.057,0.17,0.553,0.843,0.674,0.935c0.12,0.092,0.191,0.326,0.177,0.446  c-0.014,0.12,0.035,0.286-0.106,0.207c-0.142-0.079-0.653-0.646-0.744-0.646c-0.092,0-0.488,0.014-0.503-0.17s0.22-1.219,0-1.587  c-0.22-0.368-0.283-0.475-0.411-0.446C29.085,60.053,28.653,60.138,28.745,59.968z"/><path d="M31.622,63.525c-0.092,0.044,0.035,0.227,0.142,0.368c0.106,0.142,0.453,0.468,0.517,0.624  c0.064,0.156,0.135,0.539,0.113,0.843c-0.021,0.305-0.092,0.546,0.078,0.73c0.17,0.184,0.595,0.475,1.162,0.453  c0.567-0.021,0.836,0.057,0.921,0.213c0.085,0.156,0.128,0.397,0.241,0.34c0.113-0.057,0.043-0.432-0.099-0.694  s-0.744-0.602-0.999-0.595s-0.298-0.24-0.312-0.492s0.293-1.258,0.033-1.379C33.159,63.816,32.047,63.32,31.622,63.525z"/><path d="M32.352,66.508c-0.035,0.005-0.177,0.021-0.099,0.184c0.078,0.163,0.205,0.312,0.361,0.489  c0.156,0.177,0.234,0.425,0.425,0.489s0.333,0.028,0.305-0.142s-0.205-0.439-0.354-0.581C32.841,66.806,32.55,66.48,32.352,66.508z"/><path d="M34.852,67.642c-0.068,0.091-0.042,0.305,0.093,0.51s0.128,0.397,0.312,0.39c0.184-0.007,0.333-0.057,0.241-0.241  c-0.092-0.184-0.113-0.305-0.276-0.468C35.058,67.671,34.937,67.529,34.852,67.642z"/><path d="M36.072,68.351c-0.189,0.116-0.085,0.404-0.028,1.098c0.057,0.694,0.131,1.502-0.016,1.736  c-0.147,0.234-0.799,1.403-0.792,1.531c0.007,0.128,0.269,0.241,0.383,0.128s0.567-0.524,0.567-0.716  c0-0.191,0.113-0.524,0.255-0.397c0.142,0.128,0.248,0.567,0.822,0.779c0.574,0.213,1.771,0.156,2.027,0.177  c0.255,0.021,0.595,0.113,0.453,0.255c-0.142,0.142-0.595,0.057-0.631,0.234c-0.035,0.177,0.014,0.312,0.142,0.326  c0.128,0.014,1.12-0.014,1.233-0.071s0.269-0.142,0.184-0.34c-0.085-0.198-0.326-0.397-0.602-0.588  c-0.276-0.191-0.461-0.312-0.985-0.368s-1.736-0.56-1.949-0.978c-0.213-0.418-0.694-1.488-0.73-1.956  C36.369,68.733,36.383,68.159,36.072,68.351z"/><path d="M36.835,69.092c0.043,0.063,0.102,0.157,0.116,0.173c0.065,0.075,0.137,0.144,0.215,0.206  c0.16,0.125,0.324,0.231,0.479,0.365c0.039,0.033,0.178,0.128,0.178,0.188c0.064,0.163,0.071,0.829,0.248,0.992  s2.48,1.148,2.912,1.176c0.432,0.028,0.39-0.262,0.198-0.383c-0.191-0.12-1.013-0.234-1.899-0.971  c-0.886-0.737-2.097-2.181-2.168-2.296c-0.06-0.096-0.061,0.187-0.062,0.217c-0.009,0.159-0.098,0.269-0.264,0.273  C36.792,69.033,36.811,69.058,36.835,69.092z"/><path d="M42.832,72.354c-0.271,0.256-2.271,2.045-2.271,2.221c0,0.176,0.088,0.238,0.301,0.075c0.213-0.163,1.506-0.954,1.769-0.853  c0.264,0.1,0.753,0.339,0.941,0.477c0.188,0.138,0.615,0.276,1.368,0.226c0.753-0.05,1.267-0.238,2.284-0.188  c1.016,0.05,2.761,0.038,2.786-0.075s-0.966-0.075-1.38-0.125s-1.556-0.075-2.484-0.389c-0.929-0.314-2.321-1.292-2.535-1.43  C43.397,72.154,43,72.195,42.832,72.354z"/><path d="M44.192,75.252c-0.021-0.106,0.021-0.106,0.085-0.106s1.736,0.021,1.821,0.053c0.085,0.032,0.071,0.138,0,0.195  s-0.368,0.517-0.439,0.588s-0.468,0.142-0.624,0.085s-0.56-0.397-0.588-0.51S44.192,75.252,44.192,75.252z"/><path d="M46.082,76.088c-0.151,0.206-0.351,0.432-0.113,0.445c0.238,0.013,0.59-0.244,0.765-0.222s0.59,0.205,0.728,0  s1.205-0.957,1.506-0.982c0.301-0.025,0.979,0.001,1.117,0.289s0.481,1.217,0.924,1.091c0.443-0.125,1.196-0.614,1.573-0.621  c0.376-0.007,0.966,0.031,1.192,0.395c0.226,0.364,0.289,0.966,0.715,0.979c0.427,0.013,0.891-0.853,1.029-1.129  c0.138-0.276,0.402-1.169,0.238-1.011c-0.163,0.158-0.477,1.011-0.954,0.923c-0.477-0.088-1.054-0.891-1.518-0.891  s-1.368,0.389-1.819,0.439s-1.104-0.753-1.568-0.791s-1.368-0.05-2.033,0.088c-0.665,0.138-0.941-0.013-1.104,0.138  C46.597,75.378,46.082,76.088,46.082,76.088z"/><path d="M51.763,73.964c-0.168,0.052-0.736,0.254-0.754,0.376c-0.018,0.122,0.311,0.282,0.613,0.264  c0.301-0.019,1.026-0.386,1.233-0.574s0.245-0.489,0-0.442C52.61,73.634,51.857,73.934,51.763,73.964z"/><path d="M53.42,74.029c0,0-0.386,0.122-0.339,0.273s0.358,0.264,0.583,0.094c0.226-0.169,0.734-0.527,0.659-0.659  s-0.113-0.349-0.329-0.155S53.598,73.954,53.42,74.029z"/><path d="M55.245,73.117c-0.32,0.077-0.499,0.32-0.301,0.466c0.198,0.146,0.856,0.34,1.129,0.511s0.753,0.745,0.979,0.726  s0.188-0.781,0.659-0.969c0.471-0.188,1.873-0.678,2.193-0.819c0.32-0.141,1.214-0.969,1.355-0.903  c0.141,0.066,0.151,0.207,0.122,0.339s0.075,0.198,0.16,0.094c0.085-0.104,0.348-0.725,0.678-0.96  c0.329-0.235,1.063-1.035,1.205-0.894c0.141,0.141,0.028,1.365,0.085,1.703s0.16,0.8,0.329,0.979  c0.169,0.179,0.489,0.32,0.367-0.311c-0.122-0.631-0.433-2.277-0.245-2.626c0.188-0.348,0.612-1.205,0.612-1.402  c0-0.198-0.282-0.16-0.405,0.075c-0.122,0.235-0.659,0.838-0.951,1.054c-0.292,0.216-1.713,1.242-2.24,1.449  c-0.527,0.207-1.478,0.631-1.741,0.715c-0.264,0.085-2.033,0.019-2.165,0.104c-0.132,0.085-0.574,0.593-0.866,0.668  S55.455,73.066,55.245,73.117z"/><path d="M63.076,71.769c0.01,0.006,0.02,0.024,0.044,0.057c0.042,0.057,0.058,0.158,0.071,0.226c0.028,0.147,0.023,0.3-0.016,0.444  c-0.139,0.512-0.625,0.862-0.793,1.364c-0.075,0.226,0.276,0.741,0.514,0.96c0.238,0.219,0.314,0.709,0.376,0.997  c0.063,0.289,0.351,0.69,0.063,0.64c-0.289-0.05-0.929-0.54-1.255-0.903c-0.326-0.364-0.753-0.794-1.117-0.949  c-0.197-0.084-0.393-0.098-0.6-0.097c-0.234,0.001-0.2-0.195,0.003-0.268c0.445-0.161,0.836-0.448,1.173-0.781  c0.295-0.292,0.545-0.621,0.8-0.947c0.098-0.126,0.21-0.227,0.306-0.357c0.097-0.132,0.2-0.278,0.351-0.353  C63.05,71.775,63.063,71.761,63.076,71.769z"/><path d="M61.73,76.846c-0.147,0.1-0.238,0.665,0,0.69c0.238,0.025,2.735-0.213,2.786,0c0.05,0.213-0.264,1.004-0.364,1.28  c-0.1,0.276,0,0.477,0.238,0.552c0.238,0.075,0.226-0.075,0.264,0.289c0.038,0.364-0.176,0.627,0,0.765  c0.176,0.138,0.439,0.251,0.502,0c0.063-0.251,0-1.744,0.276-2.359c0.276-0.615,1.104-1.92,1.38-2.158  c0.276-0.238,0.853-0.615,0.602-0.715c-0.251-0.1-1.255,0.05-1.393-0.125c-0.138-0.176-0.64-0.113-0.477,0  c0.163,0.113,0.326,0.201,0.238,0.414c-0.088,0.213-0.841,1.054-1.129,1.217c-0.289,0.163-1.33,0.301-1.619,0.301  S62.006,76.658,61.73,76.846z"/><path d="M62.833,80.837c-0.051,0.023-0.084,0.058-0.072,0.138c0.014,0.095,0.108,0.151,0.199,0.151c0.163,0,0.954,0.138,1.054,0.452  c0.1,0.314,0.213,1.067,0.414,1.041c0.201-0.025,0.125-0.238,0.816-0.59s1.054-0.451,1.167-0.313  c0.079,0.096-0.094,0.265-0.144,0.336c-0.171,0.242-0.144,0.544-0.19,0.826c-0.033,0.204-0.16,0.594-0.03,0.783  c0.138,0.201,0.426,0.1,0.383-0.113c-0.044-0.213,0.057-1.041,0.232-1.318c0.176-0.276,0.64-0.891,0.54-1.067  c-0.1-0.176-0.238-0.289-0.489-0.176s-1.355,0.226-1.644,0.113c-0.452-0.177-0.92-0.351-1.41-0.377  c-0.246-0.013-0.494,0.013-0.73,0.082C62.893,80.816,62.86,80.824,62.833,80.837z"/><path d="M66.247,84.375c-0.171,0.257-0.201,0.979,0.088,1.242c0.289,0.264,0.828,0.339,1.242,0.452  c0.414,0.113,0.753,0.289,1.054,0.69c0.301,0.402,0.615,1.343,0.891,1.23c0.276-0.113,0.565-0.527,0.226-0.803  c-0.339-0.276-1.468-1.681-1.732-1.769c-0.263-0.088-0.928,0.013-0.991-0.402c-0.063-0.414,0.1-0.427,0.351-0.314  c0.251,0.113,0.652-0.013,0.477-0.326c-0.176-0.314-0.527-0.527-0.866-0.414S66.473,84.036,66.247,84.375z"/><path d="M68.116,84.965c-0.078,0.124-0.201,0.251,0,0.351c0.201,0.1,0.477,0.213,0.414,0C68.468,85.103,68.192,84.845,68.116,84.965  z"/><path d="M37.931,75.754c0.011-0.056,0.035-0.112,0.063-0.161c0.398-0.698-0.697-1.219-1.239-1.397  c-0.286-0.094-0.617-0.139-0.873,0.019c-0.247,0.151-0.361,0.459-0.359,0.748c0.004,0.567,0.385,0.958,0.891,1.159  c0.326,0.129,0.672,0.151,1.005,0.241c0.338,0.092,0.67,0.195,1.028,0.17c0.264-0.019,0.546,0,0.207,0.151  c-0.339,0.151-1.456,0.828-1.867,1.318c-0.411,0.489-1.096,1.581-1.261,2.654c-0.049,0.315-0.455,1.522-0.948,1.248  c-0.278-0.154-0.02-0.684,0.052-0.899c0.25-0.744,0.42-1.534,0.067-2.286c-0.499-1.061-2.071,0.806-2.236,1.36  c-0.311,1.045,0.519,2.037,0.377,3.099c-0.039,0.296-0.246,0.554-0.425,0.78c-0.135,0.171-0.34,0.533-0.554,0.613  c-0.151,0.056-0.414-0.132-0.847,0.452c-0.433,0.583-0.696,1.468-0.922,1.355c-0.226-0.113-0.094-0.696,0-1.073  s0.395-0.847,0.734-0.96c0.78-0.26,1.408-1.011,1.322-1.855c-0.026-0.255-0.116-0.503-0.255-0.718  c-0.122-0.189-0.307-0.301-0.356-0.515c-0.07-0.307-0.056-0.665-0.061-0.979c-0.011-0.692-0.025-1.728,0.536-2.238  c0.828-0.753,1.43-1.186,1.92-1.016c0.489,0.169,1.43,0.32,1.506,0.715c0.075,0.395,0.358,0.301,0.358,0.019  S35.737,77.267,36,77.229c0.264-0.038,0.508-0.132,0.151-0.339c-0.358-0.207-1.543-0.25-2.804-0.802  c-0.381-0.167-0.776-0.285-1.162-0.435c-0.417-0.162-0.199-0.554,0.095-0.738c0.2-0.125,0.434-0.18,0.658-0.252  c0.534-0.171,1.034-0.451,1.459-0.818c0.364-0.314,0.703-0.706,1.174-0.805c0.487-0.102,0.978,0.143,1.384,0.429  c0.407,0.286,0.793,0.629,1.271,0.765c0.29,0.082,0.603,0.082,0.893-0.001c0.134-0.038,0.313-0.077,0.381,0.044  c0.054,0.096-0.015,0.213-0.082,0.301c-0.296,0.391-0.592,0.782-0.887,1.173c-0.071,0.094-0.146,0.191-0.252,0.242  c-0.106,0.051-0.252,0.04-0.318-0.057C37.923,75.883,37.918,75.818,37.931,75.754z"/><path d="M33.252,80.052c-0.151,0.282-0.32,0.471-0.207,0.828s-0.113,0.734,0.207,0.508s0.32-0.546,0.64-0.885  c0.32-0.339,0.583-0.684,0.301-0.803C33.911,79.582,33.252,80.052,33.252,80.052z"/><path d="M25.253,63.27c-0.121,0.259-0.1,0.602-0.339,0.841c-0.238,0.238-0.527,0.64-0.652,0.791c-0.125,0.151,0.314,0.05,0.64-0.163  c0.326-0.213,0.492-0.1,0.572-0.427c0.08-0.326,0.231-0.414,0.319-0.753c0.088-0.339,0.201-0.502-0.088-0.477  S25.349,63.062,25.253,63.27z"/><path d="M19.995,64.8c-0.098,0.044-0.1,0.013,0.063,0.326c0.163,0.314,0.201,0.941,0.188,1.255c-0.013,0.314-0.113,0.289,0.251,0.64  s0.326,0.605,0.891,0.679c0.565,0.074,0.69-0.039,0.565-0.177c-0.125-0.138-0.916-1.067-1.054-1.418  c-0.138-0.351-0.213-0.828-0.464-1.079C20.184,64.775,20.108,64.75,19.995,64.8z"/><path d="M21.463,68c-0.034,0.121-0.151,0.238,0,0.376c0.151,0.138,0.213,0.176,0.351,0.176c0.138,0,0.414,0.013,0.376-0.213  s-0.05-0.314-0.289-0.339C21.664,67.975,21.501,67.867,21.463,68z"/><path d="M19.38,63.485c-0.087,0.122-0.162,0.273-0.281,0.366c-0.064,0.051-0.135,0.098-0.177,0.169  c-0.042,0.07-0.046,0.172,0.016,0.226c0.051,0.043,0.125,0.041,0.191,0.033c0.33-0.042,0.644-0.185,0.9-0.397  c0.131-0.108,0.247-0.235,0.342-0.376c0.047-0.07,0.087-0.25,0.18-0.271c0.045-0.01,0.093,0.01,0.126,0.042  c0.033,0.032,0.054,0.074,0.074,0.116c0.189,0.408,0.175,0.807,0.242,1.238c0.039,0.246,0.09,0.505,0.209,0.726  c0.122,0.228,0.338,0.37,0.544,0.514c0.216,0.15,0.438,0.333,0.495,0.589c0.049,0.218-0.032,0.443,0.017,0.66  c0.024,0.108,0.091,0.213,0.194,0.255c0.101,0.041,0.226,0.009,0.296-0.074c0.139-0.167,0.011-0.537-0.002-0.733  c-0.017-0.266-0.066-0.681,0.124-0.902c0.258-0.299,0.662-0.601,0.778-0.991c0.1-0.339,0.364-1.318,0.351-2.07  c-0.013-0.753,0.044-1.707,0.242-1.807s0.323-0.05,0.336,0.195c0.013,0.244,0.088,1.047,0.339,1.073s0.213-0.583,0.151-0.944  c-0.063-0.361-0.05-0.85,0.125-1.089c0.176-0.238,0.239-0.364-0.125-0.125c-0.364,0.238-0.515,0.577-0.753,0.502  s-0.414-0.264-0.627-0.025c-0.129,0.144-0.104,0.473-0.111,0.649c-0.019,0.436,0.004,0.863-0.089,1.294  c-0.143,0.661-0.502,1.273-0.828,1.86c-0.082,0.147-0.182,0.452-0.389,0.427c-0.439-0.054-0.778-0.853-0.791-1.33  c-0.013-0.477,0.176-2.572-0.025-2.648c-0.137-0.052-0.276-0.062-0.382,0.059c-0.078,0.088-0.109,0.207-0.135,0.322  c-0.089,0.403-0.273,0.8-0.476,1.159c-0.184,0.325-0.388,0.543-0.658,0.796C19.633,63.127,19.508,63.305,19.38,63.485z"/><path d="M66.612,67.09c-0.196,0.078-0.412,0.106-0.618,0.158c-0.128,0.032-0.27,0.091-0.307,0.217  c-0.033,0.113,0.039,0.235,0.138,0.298c0.099,0.063,0.22,0.08,0.337,0.096c0.635,0.087,1.271,0.173,1.906,0.26  c0.089,0.012,0.181,0.024,0.266-0.003c0.211-0.068,0.279-0.336,0.263-0.557c-0.029-0.412-0.02-0.814,0.01-1.228  c0.038-0.514,0.088-1.016,0.853-1.87c0.352-0.393,0.56-0.831,0.762-1.308c0.213-0.502,0.468-0.986,0.762-1.444  c0.061,0.549-0.125,1.145-0.23,1.688c-0.104,0.539-0.206,1.08-0.329,1.616c-0.015,0.067-0.029,0.136-0.05,0.202  c-0.088,0.276-0.464,0.502,0.063,0.59c0.527,0.088,1.644,0.176,1.995,0.678c0.351,0.502,0.828,0.966,0.753,1.355  s0.063,0.615-0.314,0.477c-0.376-0.138-0.74-0.251-0.778-0.138s0.631,0.416,1.1,0.748c0.469,0.331,0.745,0.532,1.059,0.796  s0.389,0.238,0.276-0.389c-0.08-0.444-0.065-0.866-0.213-1.302c-0.141-0.414-0.269-0.786-0.304-1.223  c-0.029-0.36-0.032-0.726-0.06-1.089c-0.025-0.326,0.376-2.02,0.439-2.296c0.063-0.276,0.552-1.079,0.552-1.343  s-0.038-0.301-0.226-0.05s-0.69,0.602-1.067,0.765c-0.376,0.163-0.954,0.138-1.242,0.402c-0.289,0.264-0.753,1.004-0.59,1.079  c0.163,0.075,0.74-0.59,1.041-0.577c0.301,0.013,0.427,0.038,0.364,0.326c-0.063,0.289-0.063,0.979-0.226,1.092  s-1.355,0.151-1.418-0.088s0.188-2.158,0.138-2.409c-0.05-0.251-0.113-3.727-0.238-3.978c-0.125-0.251-0.452-0.176-0.464,0.176  c-0.013,0.351-0.439,2.761-0.615,3.087c-0.176,0.326-0.652,1.142-0.929,1.43c-0.62,0.648-1.565,1.036-1.869,1.935  c-0.108,0.318-0.161,0.653-0.273,0.969c-0.112,0.317-0.295,0.626-0.588,0.791C66.7,67.052,66.657,67.072,66.612,67.09z"/><path d="M71.203,56.933c0.023-0.159,0.602-0.075,0.69,0c0.088,0.075,0.025,0.891-0.1,1.029c-0.125,0.138-0.376,0.351-0.452,0  S71.178,57.109,71.203,56.933z"/><path d="M74.942,63.383c-0.043,0.203-0.013,0.853,0,1.217c0.013,0.364-0.235,0.753-0.042,0.678s0.28-0.113,0.444-0.376  c0.163-0.264,0.201-0.353,0.125-0.716c-0.075-0.363,0.113-1.153-0.075-1.078C75.206,63.182,74.975,63.229,74.942,63.383z"/><path d="M74.252,66.432c-0.05,0.1-0.025,0.088,0.151,0.213c0.176,0.125,1.117,1.029,1.355,1.28c0.175,0.184,0.47,0.844,0.79,0.743  c0.08-0.025,0.144-0.082,0.206-0.138c0.21-0.187,0.431-0.462,0.689-0.578c0.309-0.14,0.74-0.081,1.066-0.049  c0.443,0.044,0.82,0.142,0.959,0.612c0.136,0.46,0.203,1.022,0.581,1.362c0.36,0.323,0.748,0.624,1.181,0.844  c0.222,0.113,0.459,0.21,0.702,0.265c0.166,0.037,0.49,0.139,0.631,0.006c0.183-0.173-0.223-0.505-0.331-0.626  c-0.255-0.286-0.429-0.637-0.64-0.956c-0.027-0.042-0.058-0.085-0.104-0.104c-0.144-0.06-0.259,0.189-0.255,0.295  c0.003,0.072,0.015,0.149-0.014,0.215c-0.145,0.331-0.513-0.136-0.594-0.271c-0.376-0.627-0.402-1.857-0.954-2.434  c-0.229-0.239-0.477-0.51-0.811-0.591c-0.272-0.066-0.54-0.014-0.77,0.139c-0.273,0.182-0.317,0.485-0.537,0.703  c-0.238,0.236-0.676,0.166-0.957,0.05c-0.556-0.23-0.845-0.778-0.776-1.366c0.038-0.32,0.094-0.64,0.161-0.956  c0,0-1.009,0.929-1.157,1.054S74.252,66.432,74.252,66.432z"/><path d="M77.353,66.127c-0.042,0.05-0.096,0.089-0.16,0.109c-0.048,0.014-0.1,0.018-0.143,0.042  c-0.043,0.025-0.075,0.083-0.048,0.125c0.018,0.029,0.055,0.038,0.089,0.045c0.233,0.048,0.511,0.119,0.725-0.026  c0.171-0.116,0.24-0.325,0.303-0.511c0.036-0.107,0.095-0.459,0.233-0.486c0.149-0.028,1.226,0.106,1.332,0.298  c0.106,0.191,0.418,0.368,0.071,0.453c-0.347,0.085-0.567-0.05-0.397,0.156c0.215,0.26,0.586,0.444,0.861,0.631  c0.393,0.267,0.83,0.508,1.083,0.925c0.046,0.075,0.092,0.16,0.174,0.193c0.149,0.06,0.32-0.119,0.313-0.263  c-0.008-0.18-0.164-0.379-0.256-0.522c-0.17-0.267-0.359-0.521-0.552-0.772c-0.166-0.215-0.309-0.442-0.473-0.662  c-0.202-0.27-0.434-0.518-0.691-0.737c-0.259-0.221-0.493-0.406-0.842-0.43c-0.338-0.023-0.679-0.039-1.017-0.024  c-0.181,0.008-1.047,0.146-0.782,0.464c0.17,0.204,0.312,0.394,0.294,0.677C77.464,65.923,77.425,66.041,77.353,66.127z"/><path d="M70.526,35.38c-0.13,0.164-0.113,0.673,0.188,0.761c0.301,0.088,0.652-0.075,0.665-0.251  c0.013-0.176,0.213-0.318-0.063-0.51S70.651,35.221,70.526,35.38z"/><path d="M67.426,35.94c-0.189,0.203,0.165,0.866,0.327,1.004c0.162,0.138,0.865,0.615,1.053,0.878  c0.188,0.264,0.916,1.179,1.154,1.631c0.238,0.452,0.477,1.669,0.715,1.656c0.238-0.013,0.294-0.188,0.279-0.703  c-0.015-0.514,0.135-1.619-0.216-1.882c-0.351-0.264-1.819-0.828-1.594-1.217c0.226-0.389,1.038-0.125,1.303,0.226  c0.265,0.351,0.855,1.042,1.62,0.991s1.222-0.176,1.276-0.816c0.054-0.64-0.186-2.146,0.104-2.409s0.992-0.703,1.356-0.791  c0.364-0.088,1.23-0.402,1.305-1.819c0.075-1.418,0.452-1.983,0.703-2.183c0.251-0.201,1.217-1.004,1.217-1.179  s0.264-0.238-0.226-0.125c-0.489,0.113-1.631,0.565-1.983,0.903s-0.514,0.728-0.527,1.179s-0.364,2.221-0.577,2.397  s-0.376,0.326-0.803,0.427c-0.427,0.1-1.443,0.798-1.669,1.14c-0.226,0.341-0.05,0.566,0.025,0.918s0.109,0.841-0.109,0.917  c-0.217,0.075-0.669,0.226-0.97-0.05c-0.301-0.276-0.665-0.615-1.217-0.74c-0.552-0.125-0.966,0.088-1.305-0.063  s-0.565-0.466-0.828-0.459C67.577,35.777,67.589,35.765,67.426,35.94z"/><path d="M73.801,30.444c0.141-0.039,0.669-0.249,0.75-0.04c0.028,0.072,0.003,0.153-0.034,0.221  c-0.037,0.067-0.086,0.128-0.113,0.201c-0.046,0.125-0.017,0.264,0,0.397c0.025,0.202-0.018,0.393-0.22,0.477  c-0.333,0.138-1.048,0.389-1.286,0.678c-0.238,0.289-0.452,1.355-0.402,1.681c0.034,0.221,0.096,0.495-0.007,0.705  c-0.114,0.234-0.525,0.694-0.809,0.484c-0.251-0.186-0.627-0.274-0.477-0.412c0.151-0.138,0.376,0.088,0.602-0.113  c0.141-0.125,0.186-0.305,0.163-0.489c-0.019-0.153-0.079-0.298-0.133-0.443c-0.207-0.554-0.183-1.192,0.04-1.739  C72.205,31.248,72.978,30.671,73.801,30.444z"/><path d="M75.108,30.222c0,0-0.34,0.276-0.312,0.439c0.028,0.163,0.012,0.411,0.155,0.34c0.143-0.071,0.298-0.453,0.348-0.574  C75.349,30.307,75.198,30.141,75.108,30.222z"/><path d="M78.283,28.114c-0.126,0.108-0.282,0.179-0.183,0.329c0.099,0.151,0.456,0.009,0.738,0c0.282-0.009,0.518,0.069,0.527-0.13  c0.009-0.199,0.085-0.425-0.216-0.369C78.848,28.001,78.451,27.97,78.283,28.114z"/><path d="M78.556,28.791c-0.108,0.275,0.216,0.367,0.235,0.574c0.019,0.207,0.085,0.678-0.118,0.8  c-0.202,0.122-0.701,0.122-0.663,0.329c0.038,0.207,0.706,0.357,0.932,0.112c0.226-0.244,0.715-0.517,0.866-0.799  s0.48-1.026,0.264-1.11S78.641,28.575,78.556,28.791z"/><path d="M29.215,34.805c0.02,0.402,0.499,0.87,0.715,0.934c0.216,0.064,0.452,0.045,0.471-0.228s0.273-1.6,0.508-1.929  c0.235-0.329,0.579-0.828,0.929-0.866c0.351-0.038,0.445-0.094,0.266,0.216c-0.179,0.311-0.998,1.662-0.932,2.078  s0.122,1.894,0.075,2.298c-0.047,0.405-0.16,1.158-0.32,1.336c-0.16,0.179-0.311,0.828-0.32,1.167  c-0.009,0.339,0.216,0.612-0.122,0.471c-0.339-0.141-0.743-1.628-0.536-1.854c0.207-0.226,0.405-0.41,0.216-0.855  c-0.188-0.444-0.169-1.508-0.395-1.611c-0.226-0.104-0.395-0.038-0.555,0.179c-0.16,0.216-0.311,0.216-0.358,0.536  c-0.047,0.32-0.075,0.659-0.282,0.631s-0.678,0-0.546-0.405s0.264-0.301,0.405-0.583c0.141-0.282,0.32-0.668,0.216-1.619  s-0.216-1.045,0.085-1.035C29.036,33.676,29.187,34.24,29.215,34.805z"/><path d="M25.065,32.59c0.172,0.193,0.1,0.289,0.326,0.464c0.226,0.176,0.439,0.201,0.489,0.414c0.05,0.213,0.038,0.351,0.226,0.326  c0.188-0.025,0.276-0.452,0.201-0.74c-0.075-0.289,0.025-0.517-0.376-0.698c-0.402-0.181-0.577-0.218-0.703-0.105  C25.102,32.364,24.851,32.352,25.065,32.59z"/><path d="M26.771,31.36c0,0,0.088,0.625,0.188,0.996c0.1,0.371,0.213,1.846,0.226,2.063s0.1,0.316-0.075,0.316  s-0.778-0.652-0.991-0.64c-0.213,0.013-0.464,0.289-0.213,0.502s1.079,0.853,1.117,1.456c0.038,0.602-0.163,1.418,0.1,1.418  c0.264,0,0.602-0.138,0.627-0.402c0.025-0.264-0.188-1.585,0-1.69c0.188-0.105,0.402-0.08,0.427-0.443  c0.025-0.364,0.201-1.28,0.063-1.23c-0.138,0.05-0.351,0.427-0.489,0.464c-0.138,0.038-0.188,0.151-0.251-0.151  c-0.063-0.301-0.176-2.234-0.038-2.522c0.138-0.289,0.439-0.59,0.188-0.514c-0.251,0.075-0.326,0.427-0.439,0.364  C27.097,31.285,26.834,31.222,26.771,31.36z"/><path d="M38.177,28.568c-0.01,0.193,0,0.17,0.326,0.195s1.167,0.251,1.393,0.414c0.226,0.163,0.979,0.803,1.067,0.565  c0.205-0.557-0.286-1.255-0.521-1.733c-0.341-0.693-0.64-1.415-0.78-2.177c-0.161-0.879-0.031-1.69,0.248-2.529  c0.024-0.074,0.244-0.547,0.151-0.612c-0.125-0.088-0.715,0.289-0.979,0.452c-0.264,0.163-1.957,1.242-2.183,1.079  c-0.226-0.163-0.264-0.427-0.125-0.489c0.138-0.063,0.615-0.176,0.903-0.364c0.289-0.188,1.104-1.041,1.041-1.305  c-0.063-0.264-0.213,0.038-0.452,0.201c-0.238,0.163-1.029,0.54-1.242,0.301s-0.238-0.226,0.013-0.339s1.343-0.527,1.355-0.59  c0.013-0.063,0.138-0.05-0.238,0c-0.376,0.05-2.409,0.916-2.547,1.079s-0.125,0.364,0.163,0.552  c0.289,0.188,0.326,0.201,0.339,0.464c0.018,0.377-0.092,0.789-0.164,1.156c-0.037,0.189-0.071,0.381-0.126,0.565  c-0.079,0.262-0.232,0.488-0.357,0.728c-0.03,0.058-0.249,0.466-0.093,0.474c0.226,0.013,0.891-0.552,1.092-0.778  c0.201-0.226,1.33-1.066,1.531-1.104c0.267-0.05,0.504-0.15,0.78-0.175c0.099,0.499,0.201,0.996,0.315,1.492  c0.099,0.429,0.198,0.86,0.38,1.263c0.149,0.33,0.417,0.667,0.496,1.022c0,0-1.004-0.1-1.28-0.038  C38.403,28.399,38.184,28.443,38.177,28.568z"/><path d="M33.497,19.189c-0.115,0.33,1.054,1.531,1.117,1.769c0.063,0.238-0.439,2.673-0.188,2.748  c0.251,0.075,0.477-0.301,0.627-0.577c0.151-0.276,1.707-1.744,2.296-1.92s1.857-0.339,2.108-0.188  c0.251,0.151,0.552,0.238,0.376-0.176s-0.389-1.054-0.276-1.493s0.05-1.179-0.163-0.966c-0.213,0.213-0.326,1.368-0.753,1.656  c-0.36,0.244-2.109,0.828-2.742,1.117c-0.137,0.063-0.294,0.018-0.381-0.104c-0.246-0.347-0.713-0.985-0.956-1.201  C34.225,19.553,33.597,18.9,33.497,19.189z"/><path d="M58.321,25.765c-0.092,0.02-0.149,0.177-0.085,0.269c0.064,0.092,0.198,0.291,0.51,0.291c0.312,0,0.418,0.028,0.857-0.028  c0.439-0.057,0.482,0.085,0.9-0.007c0.418-0.092,0.539-0.227,0.404-0.524c-0.135-0.298-0.283-0.801-0.864-0.574  s-0.624,0.588-0.893,0.634C58.881,25.871,58.42,25.744,58.321,25.765z"/><path d="M58.661,24.426c0.034,0.126,0.298,0.22,0.383,0.142s0.22-0.326,0.305-0.262s0.524,0.298,0.68,0.291  c0.156-0.007,0.828,0.071,0.931,0.177c0.103,0.106,0.387,0.645,0.337,1.02c-0.05,0.376-0.241,0.73-0.064,0.751  s0.595-0.553,0.602-0.811c0.007-0.258,0.305-1.52,0.099-1.654c-0.205-0.135-0.857,0.142-1.198-0.418  c-0.34-0.56-0.354-0.787-0.106-0.815s0.935,0.312,1.176,0.411c0.241,0.099,0.567-0.021,0.142-0.383s-1.056-0.659-1.623-0.56  s-1.049,1.063-1.091,1.247c-0.043,0.184-0.071,0.361-0.227,0.517C58.853,24.234,58.619,24.27,58.661,24.426z"/><path d="M59.367,20.265c-0.15,0.16,0.019,0.64-0.075,0.95c-0.073,0.243-0.161,0.481-0.232,0.724  c-0.045,0.156-0.208,0.542-0.054,0.671c0.135,0.113,0.417,0.007,0.512-0.115c0.215-0.275,0.328-0.624,0.529-0.91  c0.067-0.095,0.161-0.236,0.298-0.181c0.132,0.053,0.27,0.221,0.38,0.313c0.189,0.157,0.353,0.311,0.583,0.4  c0.227,0.087,0.471,0.125,0.713,0.134c0.555,0.019,1.167,0.022,1.336,0.044c0,0-0.038,1.264-0.216,1.603  c-0.179,0.339-0.734,1.082-0.762,1.393c-0.028,0.311,0.028,0.414-0.085,0.621c-0.113,0.207-0.546,0.329-0.546,0.527  c0,0.198,0.423,0.555,0.678,0.273c0.254-0.282,0.621-0.847,0.583-1.129c-0.038-0.282,0.16-0.772,0.452-1.016  c0.292-0.245,0.866-0.329,0.96-0.725c0,0-0.085-1.211,0.169-1.546c0.254-0.336,0.903-0.853,1.082-0.938  c0.179-0.085,0.151-0.433-0.094-0.367s-1.412,0.536-1.91,0.602c-0.456,0.06-0.919,0.103-1.378,0.05  c-0.517-0.059-0.921-0.333-1.324-0.644c-0.257-0.198-0.516-0.4-0.813-0.533c-0.129-0.058-0.267-0.088-0.39-0.153  C59.647,20.251,59.481,20.144,59.367,20.265z"/><path d="M61.846,19.476c-0.178,0.207-0.286,0.474-0.273,0.748c0.03,0.659,0.866,1.418,1.531,1.114  c0.555-0.254,0.819-0.565,0.762-1.016c-0.056-0.452-0.179-1.525,0.066-1.854c0.245-0.329,0.602-0.668,1.12-1.063  c0,0-0.715,0.104-0.998,0.198c-0.282,0.094-0.423,0.16-0.518,0.461c-0.094,0.301-0.423,0.555-0.386,1.11s0.169,1.252-0.104,1.223  c-0.273-0.028-0.876,0.16-0.682-0.273c0.193-0.433,0.391-0.461,0.353-0.696c-0.021-0.134-0.121-0.251-0.253-0.285  c-0.142-0.037-0.272,0.047-0.385,0.124C61.993,19.326,61.914,19.396,61.846,19.476z"/><path d="M14.607,38.58c-0.265-0.412-0.601-0.083-0.498,0.539c0.104,0.622,0.933,3.297,0.912,3.816  c-0.021,0.518,0.036,1.348-0.469,1.742c-0.505,0.394-1.75,0.829-2.102,1.058c-0.353,0.228-0.211,0.477,0.216,0.498  s2.003,0.581,2.501,0.726s1.058,0.249,1.12,0.539c0.062,0.29,0.187,0.394-0.187,0.415c-0.373,0.021-2.426,0.041-3.276,0.353  c-0.85,0.311-2.965,0.899-3.069,1.735s-0.104,2.433,0.332,2.557s0.622-0.083,0.56-0.456s-0.041-1.88,0.705-2.101  c0.747-0.221,0.954-0.139,1.472,0.11c0.518,0.249,0.726,0.083,0.892,0.145s0.311,0.207-0.124,0.373s-1.369,0.892-1.908,1.866  c-0.539,0.975-0.187,1.203-0.622,1.4c-0.435,0.197-0.518,0.467-0.228,0.487c0.29,0.021,1.058-0.518,1.224-0.788  s0.539-0.601,0.705-0.415c0.166,0.187-0.062,0.892-0.394,1.348s-0.601,2.488-0.353,3.318c0.249,0.829,0.56,1.648,0.518,1.934  s-0.249,0.845-0.498,1.301c-0.249,0.456-0.373,1.763-0.249,2.157s0.518,0.664,0.518,0.207c0-0.456-0.062-1.618,0.207-2.115  c0.27-0.498,0.726-1.058,0.726-1.327s-0.228-4.127,0.249-5.081c0.477-0.954,1.68-2.426,2.509-2.613  c0.829-0.187,1.68-0.705,1.783-0.912h-3.857c0,0,1.348-1.265,1.742-1.306c0,0-1.618-0.311-1.265-0.581  c0.353-0.27,0.643-0.104,0.892-0.27c0.249-0.166,0.062-0.912,1.182-0.829c1.12,0.083,1.327,0.29,1.659,0.187  c0.332-0.104,0.394-0.539,0.705-0.415c0.311,0.124,1.286-0.145,1.452-0.871c0.166-0.726,0-1.306-0.27-1.327s-0.456,0.27-0.498,0.705  c-0.041,0.435-0.353,0.892-0.954,0.829c-0.601-0.062-2.488-0.477-2.094-1.618c0.394-1.141,1.887-1.514,2.323-1.493  c0.435,0.021,0.539,0.145,0.975-0.145c0.435-0.29,2.343-1.161,2.426-1.472c0.083-0.311,0.124-0.56-0.456-0.518  c-0.581,0.041-2.654,0.415-3.982-0.021s-2.613-2.053-2.82-2.634C14.732,39.037,14.794,38.871,14.607,38.58z"/><path d="M15.437,57.026c0.022,0.282-0.28,1.141-0.487,1.255c-0.207,0.114-1.369,1.69-1.555,1.98c-0.187,0.29-0.591,1.4-0.55,1.804  c0.041,0.404,0.083,0.975,0.27,0.518c0.187-0.456,0.27-0.912,0.425-0.933c0.156-0.021,0.301,1.441,0.27,1.7  s-0.249,1.379-0.446,1.669s-1.41,1.669-1.348,2.229c0.034,0.31,0.105,0.675,0.309,0.921c0.078,0.094,0.168,0.181,0.228,0.288  c0.099,0.175,0.014,0.355,0.089,0.534c0.108,0.255,0.402,0.34,0.532,0.589c0.124,0.237,0.107,0.554,0.409,0.634  c0.403,0.106,0.378-0.684,0.402-0.907c0.014-0.126,0.015-0.26,0.06-0.38c0.102-0.275,0.38-0.087,0.552,0.003  c0.143,0.075,0.274,0.169,0.393,0.277c0.306,0.277,0.531,0.642,0.67,1.029c0.238,0.665,0.251,1.387,0.261,2.093  c0.017,1.175,0.035,2.35,0.052,3.524c0.002,0.124,0.004,0.252,0.054,0.366c0.049,0.114,0.158,0.212,0.282,0.209  c0.123-0.003,0.226-0.102,0.274-0.215c0.048-0.113,0.052-0.239,0.06-0.361c0.074-1.096,0.533-2.161,1.277-2.968  c0.094-0.101,0.193-0.201,0.251-0.327s0.063-0.285-0.025-0.392c-0.156-0.188-0.371-0.117-0.533,0.022  c-0.168,0.145-0.229,0.356-0.375,0.507c-0.082,0.084-0.208,0.139-0.318,0.097c-0.15-0.056-0.19-0.249-0.184-0.409  c0.017-0.5,0.249-0.964,0.379-1.448c0.13-0.483,0.135-1.062-0.221-1.414c-0.241-0.238-0.593-0.317-0.921-0.404  c-0.358-0.094-0.787-0.234-0.899-0.624c-0.176-0.612-0.093-1.244-0.176-1.524c-0.083-0.28-0.674-0.529-0.715-0.29  c-0.041,0.238,0.062,0.525-0.062,0.713c-0.124,0.189-0.487,0.347-0.456,0.542c0.031,0.196,0.052,1.43-0.124,1.388  s-0.591-0.968-0.446-1.931c0.064-0.425,0.208-0.838,0.413-1.215c0.114-0.209,0.257-0.399,0.417-0.574  c0.076-0.083,0.25-0.363,0.381-0.347c0.154,0.019,0.055,0.277,0.048,0.368c-0.004,0.055-0.016,0.141,0.045,0.172  c0.122,0.064,0.161-0.191,0.175-0.268c0.018-0.101,0.026-0.205,0.06-0.302c0.041-0.12,0.146-0.286,0.286-0.191  c0.111,0.075,0.141,0.257,0.146,0.38c0.01,0.218-0.135,1.192-0.021,1.078c0.114-0.114,0.986-1.255,0.929-1.472  c-0.058-0.218-0.172-0.01-0.338-0.062c-0.166-0.052-0.28-0.093,0.031-0.487c0.311-0.394,1.109-1.026,1.327-1.182  c0.218-0.156,0.166-0.27,0.021-0.207c-0.556,0.238-1.174,0.241-1.738,0.448c-0.202,0.074-0.397,0.178-0.56,0.32  c-0.082,0.072-0.144,0.146-0.198,0.237c-0.053,0.089-0.11,0.19-0.231,0.192c-0.239,0.005-0.179-0.335-0.124-0.462  c0.176-0.404,0.643-0.632,0.653-0.902c0.01-0.27,0.041-0.435,0.27-0.446c0.228-0.01,2.198,0.187,2.571,0.135  c0.373-0.052,0.829-0.456,0.218-0.995s-1.13-0.798-1.441-0.726c-0.311,0.073-0.311,0.031-0.156,0.218s0.975,0.622,0.829,0.705  c-0.145,0.083-0.518-0.052-0.798-0.363c-0.28-0.311-0.684-0.508-0.726-0.373s-0.031,0.259,0.124,0.435s0.363,0.27,0.156,0.29  c-0.207,0.021-1.182-0.197-1.172-0.84c0.01-0.643,0.467-1.68,0.632-1.877c0.166-0.197,0.446-1.348,0.446-1.597  s0.083-0.643-0.062-0.684S15.427,56.891,15.437,57.026z"/><path d="M16.12,50.249c-0.078,0.093,0.117,0.25,0.234,0.351c0.117,0.101,0.843,0.429,1.007,0.312  c0.164-0.117,0.281-0.162,0.141-0.319c-0.141-0.157-0.945-0.524-1.07-0.516C16.307,50.085,16.206,50.147,16.12,50.249z"/><path d="M16.776,53.457c-0.079,0.1-0.211,0.242-0.18,0.383c0.031,0.141,0.148,0.336,0.304,0.258  c0.156-0.078,0.351-0.062,0.304-0.226c-0.047-0.164-0.094-0.429-0.226-0.445S16.832,53.386,16.776,53.457z"/><path d="M16.102,54.621c-0.083,0.086-0.122,0.156-0.13,0.312c-0.008,0.156-0.109,1.171,0,1.28c0.109,0.109,0.351,0.141,0.468,0  c0.117-0.141,0.156-0.531,0.117-0.749c-0.039-0.219,0.016-0.82-0.109-0.937C16.323,54.41,16.102,54.621,16.102,54.621z"/><path d="M12.208,64.231c-0.029,0.143-0.062,0.484,0,0.679c0.062,0.195,0.016,0.383,0.156,0.281c0.141-0.101,0.344-0.219,0.265-0.5  s-0.062-0.593-0.156-0.64C12.38,64.005,12.225,64.149,12.208,64.231z"/><path d="M80.925,42.417c-0.201,0.073-0.28,0.124-0.145,0.218c0.135,0.093,0.715,0.062,0.892,0.218  c0.176,0.156,0.829,0.664,1.099,0.964s1.016,0.954,1.338,1.089s1.172,0.135,2.924-0.187c1.752-0.321,2.032-1.369,2.012-1.908  s-0.01-1.918-0.207-1.752c-0.197,0.166-2.115,1.244-2.779,1.441c-0.664,0.197-2.706,0.27-3.567,0.104S81.61,42.168,80.925,42.417z"/><path d="M89.656,42.182c0.022,0.414-0.254,2.406-0.611,2.682s-2.348,1.839-2.749,2.917c-0.401,1.078-0.484,3.691-0.387,3.982  c0.097,0.29,0.138,0.069,0.221-0.221c0.083-0.29,0.76-2.488,1.493-3.014s2.074-1.189,2.668-1.894s1.728-2.378,1.286-3.982  c-0.442-1.604-1.051-1.624-1.327-1.607C89.974,41.062,89.628,41.656,89.656,42.182z"/><path d="M88.868,48.14c-0.054,0.162-0.705,2.005-0.843,2.184c-0.138,0.18-0.318,0.097-0.138,0.18s1.341-0.567,1.424-0.359  c0.083,0.207-0.802,1.728-0.885,2.074c-0.083,0.346-0.664,0.954-0.332,0.982s1.272-0.456,1.396-0.152s-0.194,1.77-0.636,2.115  c-0.442,0.346-0.774,0.705-1.134,0.76c-0.359,0.055-0.788,0.152-0.802,0.359c-0.014,0.207,0.498,1.3,0.747,1.286  s0.581-0.401,0.747-0.069c0.166,0.332,0.124,1.3,0.442,1.507c0.318,0.207,0.995,0.816,0.912,1.313  c-0.083,0.498-0.968,0.857-0.885,1.106c0.083,0.249,0.774,0.525,0.892,0.802c0.117,0.277,0.104,2.226-0.187,2.585  s-1.673,2.323-2.115,2.502c-0.442,0.18-1.853,0.387-2.267,1.41c-0.415,1.023-0.456,1.023-0.111,0.899  c0.346-0.124,1.548-0.171,1.853,0.253c0.304,0.424,0.359,0.839,0.553,0.618c0.194-0.221,0.028-0.912-0.263-1.203  s-0.954-0.235-0.816-0.442c0.138-0.207,0.912-0.18,1.618-0.484c0.705-0.304,1.673-1.009,2.267-1.894c0,0,0.76-0.871,0.829-2.212  s-0.276-2.184-0.747-2.723c-0.47-0.539-0.221-0.498,0.083-0.664c0.304-0.166,0.829-0.768-0.152-1.525  c-0.982-0.757-0.747-1.78-0.249-2.623c0.498-0.843,1.493-1.535,1.493-1.811s-1.465-0.055-1.742,0.055s-0.539,0.083-0.18-0.387  c0.359-0.47,2.157-2.613,2.475-2.903s0.788-0.591,0.304-0.482c-0.484,0.109-1.783,0.372-1.825,0.233s0.083-1.051,0.373-1.355  c0.29-0.304,1.452-1.313,1.59-1.424c0.138-0.111,0-0.318-0.318-0.235c-0.212,0.055-0.44,0.069-0.658,0.086  c-0.286,0.022-0.575,0.035-0.862,0.017c-0.116-0.007-0.237-0.011-0.342-0.065c-0.141-0.073-0.247-0.199-0.343-0.322  c-0.081-0.104-0.162-0.211-0.264-0.295c-0.044-0.036-0.114-0.097-0.172-0.104c-0.061-0.007-0.131,0.036-0.191,0.048  c-0.07,0.015-0.139,0.032-0.207,0.056C89.054,47.891,88.919,47.985,88.868,48.14z"/><path d="M84.236,75.168c-0.103,0.206,0.138,0.525,0.249,0.912c0.111,0.387,0.498,1.147,0.622,1.908c0.124,0.76,0,1.77,0.166,1.618  c0.166-0.152,1.078-0.525,1.244-0.829s0.415-2.046,0.816-2.516c0.401-0.47,1.355-0.539,1.3-0.843  c-0.055-0.304-1.009-0.802-0.954-1.3s0.097-2.447-0.276-2.834c-0.373-0.387-0.843-1.189-1.3-1.065  c-0.456,0.124-0.18,0.587,0.014,0.839c0.194,0.253,0.982,1.469,0.581,3.294c-0.401,1.825-0.774,2.723-0.982,2.571  c-0.207-0.152-0.912-1.59-1.106-1.756C84.416,75.002,84.333,74.974,84.236,75.168z"/><path d="M88.745,69.5c-0.022,0.29,0.206,0.622,0.227,0.829c0.021,0.207-0.29,0.892,0.104,0.601c0.394-0.29,0.311-0.655,0.56-1.053  c0.249-0.398,0.539-1.456,0.27-1.249s-0.477,0.581-0.684,0.664C89.013,69.375,88.745,69.5,88.745,69.5z"/><path d="M91.149,58.861c0.127,0.526,0.435,1.576,0.912,2.177c0.477,0.601,0.435,1.12,0.726,0.871s-0.462-1.887-0.158-2.447  c0.304-0.56,0.221-0.815,0.407-1.309c0.187-0.495,0.077-0.744-0.407-0.515C92.144,57.866,90.956,58.062,91.149,58.861z"/><path d="M91.345,46.892c-0.242,0.366-0.255,0.432-0.161,0.609c0.094,0.177,0.713,0.401,0.9,0.265  c0.187-0.135,0.677-0.156,0.593-0.671c-0.083-0.515-0.213-0.828-0.484-0.671c-0.271,0.156-0.619,0.239-0.734,0.354  S91.404,46.803,91.345,46.892z"/><path d="M78.63,78.982c0.077-0.092,0.209-0.141,0.33-0.174c0.267-0.073,0.54-0.124,0.816-0.153c0.115-0.012,0.232-0.02,0.345,0.003  c0.292,0.061,0.473,0.419,0.604,0.661c0.093,0.171,0.18,0.35,0.225,0.54c0.046,0.196,0.012,0.387,0.003,0.584  c-0.034,0.732-0.196,1.716-1.043,1.892c-0.905,0.188-1.842,0.098-2.56-0.515c-0.961-0.822-1.358-2.163-1.306-3.399  c0.057-1.346,0.976-2.294,2.104-2.926c0.875-0.491,1.835-0.768,2.829-0.541c1.172,0.268,2.603,1.47,3.018,2.808  c0.415,1.338,0.539,2.897-0.373,4.481c-0.912,1.585-1.825,2.85-2.157,4.218s-0.311,3.111-0.394,3.753  c-0.083,0.643-0.505,0.954-0.895-0.581c-0.39-1.535-0.536-4.417,0.418-6.2c0.285-0.533,0.527-1.091,0.716-1.665  c0.185-0.562,0.34-1.161,0.374-1.754c0.003-0.056,0.005-0.112,0.006-0.168c0.005-0.425-0.069-0.855-0.257-1.236  c-0.393-0.793-1.458-1.496-2.345-1.088c-0.268,0.123-0.491,0.341-0.625,0.604c-0.156,0.306-0.278,0.643-0.35,0.979  c-0.022,0.104-0.04,0.211-0.025,0.316s0.067,0.21,0.157,0.266c0.09,0.056,0.221,0.051,0.293-0.028  c0.068-0.075,0.067-0.19,0.051-0.29c-0.016-0.1-0.042-0.205-0.009-0.301C78.591,79.038,78.608,79.008,78.63,78.982z"/><path d="M83.02,36.673c0.023,0.746,0.145,1.846,0.809,1.908c0.664,0.062,1.244-0.083,1.327,0c0.083,0.083-0.313,0.443-1.069,0.605  c-0.756,0.162-1.772-0.605-1.71-1.829c0.062-1.223,0.954-2.115,2.177-2.654c1.223-0.539,2.882-1.606,3.422-2.099  c0.539-0.493,0.935-1.007,1.069-1.59c0.134-0.583-0.074-0.313-0.385-0.085c-0.311,0.228-1.265,0.954-2.654,1.348  s-5.173,1.68-5.863,3.256s-0.43,3.836,0,4.624c0.43,0.788,2.151,1.763,3.209,1.7c1.058-0.062,2.654,0,3.484-1.244  s0.767-2.468,0.415-3.608c-0.353-1.141-1.763-1.673-2.509-1.624S83.004,36.159,83.02,36.673z"/><path d="M48.744,16.496c-0.082,0.07-0.164,0.139-0.246,0.209c-0.626,0.536-1.04,1.339-1.326,2.109  c-0.269,0.725-0.421,1.552-0.172,2.305c0.581,1.763,1.896,2.862,3.001,2.965s2.743-0.145,3.365-0.975  c0.622-0.829,1.244-2.281,0.871-3.836c-0.373-1.555-1.286-1.949-2.281-2.032c-0.995-0.083-2.136,0.664-2.24,1.535  s0.103,1.41,0.528,1.576c0.425,0.166,0.985,0.311,1.255,0.083c0.27-0.228,0.56-0.933,0.643-0.912s0.29,0.714-0.104,1.135  c-0.394,0.421-0.829,0.586-1.7,0.462c-0.871-0.124-1.265-0.815-1.12-1.714c0.145-0.899,0.498-1.77,1.203-2.309  c0.705-0.539,1.514-1.7,1.68-2.136c0.166-0.435,1.203-2.986,1.016-3.297c-0.187-0.311-0.367,0.601-0.888,1.244  c-0.536,0.66-1.09,1.305-1.65,1.945C50.044,15.463,49.364,15.972,48.744,16.496z"/><path d="M12.181,31.239c0.32,0.543,1.306,1.638,1.535,2.364c0.228,0.726,2.115,5.705,2.779,6.534c0.664,0.828,1.7,2.342,3.359,1.761  c1.659-0.581,2.717-1.638,2.882-2.385c0.166-0.747,0.282-2.509-0.491-3.256c-0.774-0.747-1.603-1.638-3.428-1.161  c-1.825,0.477-1.493,2.696-0.477,3.173c1.016,0.477,1.597,0.27,1.825-0.798c0,0,0.353-0.177,0.332,0.259  c-0.021,0.435-0.104,1.099-0.581,1.203c-0.477,0.104-1.7,0.392-2.696-1.359c-0.995-1.751-0.967-3.034-1.866-4.302  c-0.912-1.286-2.986-2.675-3.173-2.592C11.994,30.762,12.072,31.054,12.181,31.239z"/><path d="M19.481,84.043c0,0-1.742,1.755-1.77,2.343c-0.028,0.588,0,0.864,0.636,0.394c0.636-0.47,3.27-2.71,3.764-3.097  c0.494-0.387,2.71-1.548,3.22-4.175c0.51-2.627-1.723-4.866-3.22-4.977c-1.497-0.111-4.275,1.272-4.407,3.263  c-0.131,1.991,0.311,3.429,1.942,3.539c1.631,0.111,3.318-1.355,2.986-2.627s-0.94-1.355-1.908-1.244  c-0.968,0.111-0.968,1.189-1.078,1.355c-0.111,0.166-0.304-0.041-0.249-0.221c0.055-0.18,0.47-1.853,1.825-1.756  c1.355,0.097,2.005,0.995,2.06,1.396c0.055,0.401,0.221,1.783-1.618,3.608C19.826,83.67,19.481,84.043,19.481,84.043z"/><text x="0" y="115" fill="#000000" font-size="5px" font-weight="bold" font-family="'Helvetica Neue', Helvetica, Arial-Unicode, Arial, Sans-serif">Created by Juan Pablo Pérez Beltrán</text><text x="0" y="120" fill="#000000" font-size="5px" font-weight="bold" font-family="'Helvetica Neue', Helvetica, Arial-Unicode, Arial, Sans-serif">from the Noun Project</text></svg>