<?xml version="1.0" encoding="UTF-8" ?>
<!DOCTYPE svg PUBLIC "-//W3C//DTD SVG 1.1//EN" "http://www.w3.org/Graphics/SVG/1.1/DTD/svg11.dtd">
<svg width="532pt" height="532pt" viewBox="0 0 532 532" version="1.1" xmlns="http://www.w3.org/2000/svg">
<g id="#010c2aff">
<path fill="#010c2a" opacity="1.00" d=" M 42.73 19.75 C 59.55 7.60 80.25 0.96 100.99 1.01 C 209.99 0.85 319.00 0.95 428.00 0.99 C 458.40 -0.25 488.94 13.14 508.43 36.53 C 522.50 52.98 530.55 74.07 532.00 95.59 L 532.00 437.40 C 530.76 453.63 526.21 469.70 517.65 483.62 C 507.37 500.64 491.93 514.52 473.86 522.82 C 462.43 528.23 449.95 530.95 437.40 532.00 L 94.63 532.00 C 78.99 530.54 63.51 526.21 50.02 518.02 C 25.76 503.74 8.04 478.80 2.85 451.10 C 0.51 440.22 1.04 429.05 1.00 418.00 C 0.39 360.34 0.86 302.67 0.75 245.00 C 0.87 201.67 0.40 158.33 1.00 115.00 C 1.06 104.28 0.51 93.44 2.68 82.87 C 7.13 57.67 21.95 34.61 42.73 19.75 M 261.81 54.95 C 259.61 55.70 258.27 57.70 256.80 59.36 C 252.50 61.95 251.64 67.43 251.62 72.03 C 251.66 81.56 260.55 89.78 270.02 89.33 C 276.00 89.20 281.32 85.44 284.60 80.62 C 289.47 72.74 287.13 61.73 279.84 56.15 C 274.89 52.11 267.17 51.38 261.81 54.95 M 82.49 70.29 C 78.32 71.38 74.68 74.00 71.80 77.15 C 69.84 79.86 67.46 82.52 66.94 85.96 C 65.95 91.84 66.20 98.27 69.42 103.48 C 71.92 108.27 76.66 111.29 81.37 113.61 C 91.53 117.16 103.76 112.39 108.92 102.95 C 114.07 92.98 110.68 79.88 101.56 73.44 C 96.11 69.73 88.79 68.09 82.49 70.29 M 425.34 72.08 C 415.32 74.78 406.82 82.05 401.99 91.16 C 396.35 100.95 396.41 112.94 399.11 123.64 C 401.88 134.52 403.97 145.77 402.92 157.04 C 401.99 175.80 397.49 194.16 391.95 212.03 C 381.90 245.57 371.75 279.07 361.64 312.59 C 358.04 323.32 355.43 334.34 352.19 345.17 C 350.27 346.08 347.60 347.04 346.25 344.71 C 344.18 340.36 343.65 335.44 342.15 330.87 C 335.82 309.26 329.19 287.73 322.57 266.20 C 314.13 240.08 306.67 213.65 298.26 187.53 C 295.80 180.55 291.39 173.97 284.84 170.27 C 274.45 164.14 260.47 164.43 250.64 171.56 C 244.27 175.90 240.30 182.95 238.20 190.22 C 229.18 220.16 219.64 249.93 210.79 279.92 C 204.29 300.70 197.95 321.54 192.39 342.59 C 192.07 344.44 190.71 345.76 188.94 346.28 C 184.47 345.80 184.89 340.53 183.69 337.30 C 171.98 294.66 158.49 252.53 146.25 210.03 C 143.17 200.70 140.80 191.10 136.82 182.08 C 132.36 172.88 126.49 164.01 118.08 157.96 C 104.22 147.57 83.79 145.47 68.88 154.87 C 59.44 160.88 53.22 171.76 53.27 183.00 C 53.12 193.54 58.33 204.00 66.85 210.21 C 71.69 214.06 77.64 216.44 81.88 221.06 C 85.82 225.21 88.13 230.57 89.91 235.94 C 98.45 262.09 106.12 288.52 114.49 314.73 C 126.36 353.33 138.50 391.84 150.41 430.43 C 153.04 438.89 156.89 447.42 163.83 453.23 C 173.11 461.41 187.01 463.66 198.51 459.29 C 208.65 455.44 215.88 446.20 219.51 436.24 C 222.86 427.15 225.75 417.90 228.72 408.68 C 241.34 368.79 254.75 329.14 267.31 289.23 C 268.41 289.23 269.52 289.25 270.64 289.27 C 274.10 298.14 276.53 307.37 279.40 316.45 C 291.51 354.09 304.16 391.56 315.93 429.31 C 319.03 439.50 323.98 449.84 333.08 455.96 C 344.76 463.83 361.42 463.20 372.59 454.68 C 380.86 448.58 385.35 438.92 388.57 429.44 C 401.86 389.13 414.88 348.74 428.38 308.51 C 442.18 265.43 456.96 222.66 469.25 179.12 C 474.07 160.40 478.68 141.40 479.21 121.99 C 478.86 115.53 478.77 108.92 476.62 102.73 C 473.16 90.22 464.35 78.86 452.23 73.79 C 443.76 70.41 434.15 69.51 425.34 72.08 M 184.34 73.21 C 178.69 74.30 172.74 75.41 168.12 79.08 C 160.02 84.98 152.57 92.67 149.49 102.43 C 146.56 108.55 147.34 115.48 147.38 122.05 C 147.30 127.75 149.55 133.14 151.93 138.21 C 156.61 146.65 164.90 152.21 172.81 157.33 C 181.94 161.51 192.46 162.61 202.29 160.56 C 214.83 157.64 225.77 148.88 231.39 137.29 C 234.87 128.87 236.75 119.57 234.85 110.51 C 233.50 98.02 226.69 85.74 215.59 79.44 C 206.35 73.86 195.01 71.58 184.34 73.21 M 329.29 81.17 C 326.42 82.16 323.58 83.32 321.00 84.94 C 317.46 87.18 315.39 90.96 313.44 94.53 C 310.14 100.28 311.21 107.45 313.75 113.28 C 315.95 119.71 322.40 123.53 328.51 125.59 C 335.26 127.96 342.44 125.66 348.38 122.26 C 360.69 112.95 359.14 90.78 345.38 83.57 C 340.67 80.65 334.64 79.65 329.29 81.17 M 334.40 160.56 C 330.52 161.87 326.88 165.58 327.43 169.96 C 327.29 175.08 331.35 179.82 336.43 180.48 C 340.92 181.29 345.13 178.15 347.48 174.58 C 348.19 170.40 347.87 165.52 344.41 162.58 C 341.94 159.70 337.78 159.91 334.40 160.56 M 183.37 215.30 C 180.15 217.01 178.37 220.55 177.69 223.99 C 177.97 228.22 179.97 233.13 184.35 234.52 C 187.98 235.12 192.08 235.27 195.27 233.14 C 198.56 231.48 198.70 227.21 198.64 224.00 C 198.81 220.36 195.96 217.32 192.79 215.98 C 189.91 214.65 186.31 213.59 183.37 215.30 M 341.21 219.96 C 337.39 221.70 333.56 225.41 334.33 229.99 C 334.10 233.35 336.22 236.26 338.76 238.22 C 344.62 242.14 354.37 237.41 353.70 230.02 C 354.85 223.39 347.41 217.48 341.21 219.96 M 52.21 303.71 L 52.26 304.41 C 48.62 305.39 45.68 307.94 43.67 311.06 C 38.85 316.70 37.62 324.74 39.24 331.83 C 42.29 344.48 56.00 353.50 68.81 350.82 C 74.48 349.84 79.74 346.88 83.51 342.54 C 88.47 336.33 89.84 327.76 87.94 320.14 C 85.21 311.79 79.18 303.40 70.01 301.73 C 64.12 300.75 57.50 300.49 52.21 303.71 M 457.59 324.25 C 455.39 327.46 452.80 330.84 453.25 335.00 C 452.78 344.86 462.37 353.31 472.05 352.25 C 477.14 351.77 481.49 348.51 484.72 344.74 C 487.81 340.98 488.02 335.87 487.43 331.26 C 485.62 324.26 479.29 318.16 471.80 318.18 C 466.35 317.72 461.04 320.02 457.59 324.25 M 78.31 393.35 C 73.82 394.39 69.44 396.11 65.65 398.75 C 62.37 401.12 59.98 404.45 57.59 407.66 C 51.38 415.72 50.27 426.94 53.41 436.46 C 55.67 444.72 61.99 451.09 68.63 456.13 C 75.82 459.49 84.01 461.45 91.93 459.97 C 101.28 458.56 109.98 452.99 114.86 444.85 C 123.80 430.23 119.98 409.25 106.14 399.02 C 98.07 393.67 87.84 391.38 78.31 393.35 M 266.27 393.11 C 258.72 395.11 256.87 405.74 262.05 411.01 C 264.42 413.97 268.53 413.96 271.96 413.62 C 277.41 413.27 281.41 407.53 280.51 402.27 C 280.63 395.23 272.52 390.68 266.27 393.11 M 446.47 394.80 C 428.17 397.67 417.71 421.12 427.01 436.93 C 431.36 446.35 441.74 452.21 451.99 451.71 C 455.58 451.58 459.33 451.83 462.72 450.47 C 469.68 446.81 476.25 441.29 478.54 433.47 C 480.88 424.96 479.72 415.44 475.14 407.85 C 472.68 404.37 469.51 401.46 466.37 398.61 C 460.90 394.02 453.18 394.22 446.47 394.80 M 259.86 436.96 C 258.52 437.51 256.98 437.95 256.31 439.37 C 253.80 440.47 252.13 442.76 250.58 444.92 C 240.86 455.11 246.53 474.18 259.55 478.66 C 270.30 483.88 285.35 478.29 288.65 466.45 C 291.92 459.25 290.55 450.47 285.76 444.30 C 280.02 436.54 268.80 433.30 259.86 436.96 Z" />
</g>
<g id="#42c5fdff">
<path fill="#42c5fd" opacity="1.00" d=" M 261.81 54.95 C 267.17 51.38 274.89 52.11 279.84 56.15 C 287.13 61.73 289.47 72.74 284.60 80.62 C 281.32 85.44 276.00 89.20 270.02 89.33 C 260.55 89.78 251.66 81.56 251.62 72.03 C 251.64 67.43 252.50 61.95 256.80 59.36 C 258.25 60.53 259.72 61.69 261.14 62.91 C 264.25 61.65 265.69 58.71 265.88 55.50 C 264.52 55.31 263.17 55.12 261.81 54.95 Z" />
<path fill="#42c5fd" opacity="1.00" d=" M 82.49 70.29 C 88.79 68.09 96.11 69.73 101.56 73.44 C 110.68 79.88 114.07 92.98 108.92 102.95 C 103.76 112.39 91.53 117.16 81.37 113.61 C 76.66 111.29 71.92 108.27 69.42 103.48 C 66.20 98.27 65.95 91.84 66.94 85.96 C 67.46 82.52 69.84 79.86 71.80 77.15 C 72.84 78.34 73.89 79.53 74.91 80.74 C 79.31 78.36 84.94 76.74 86.94 71.63 C 85.46 71.17 83.98 70.71 82.49 70.29 Z" />
<path fill="#42c5fd" opacity="1.00" d=" M 52.21 303.71 C 57.50 300.49 64.12 300.75 70.01 301.73 C 79.18 303.40 85.21 311.79 87.94 320.14 C 89.84 327.76 88.47 336.33 83.51 342.54 C 79.74 346.88 74.48 349.84 68.81 350.82 C 56.00 353.50 42.29 344.48 39.24 331.83 C 37.62 324.74 38.85 316.70 43.67 311.06 C 44.52 312.29 45.38 313.52 46.23 314.76 C 50.99 313.75 53.31 308.96 52.26 304.41 L 52.21 303.71 Z" />
<path fill="#42c5fd" opacity="1.00" d=" M 471.80 318.18 C 479.29 318.16 485.62 324.26 487.43 331.26 C 488.02 335.87 487.81 340.98 484.72 344.74 C 481.49 348.51 477.14 351.77 472.05 352.25 C 462.37 353.31 452.78 344.86 453.25 335.00 C 452.80 330.84 455.39 327.46 457.59 324.25 C 458.66 325.43 459.80 327.21 461.69 326.54 C 466.18 324.95 468.61 319.69 473.73 319.36 C 473.07 318.97 472.43 318.57 471.80 318.18 Z" />
<path fill="#42c5fd" opacity="1.00" d=" M 266.27 393.11 C 272.52 390.68 280.63 395.23 280.51 402.27 C 281.41 407.53 277.41 413.27 271.96 413.62 C 268.53 413.96 264.42 413.97 262.05 411.01 C 256.87 405.74 258.72 395.11 266.27 393.11 Z" />
</g>
<g id="#fdfdfcff">
<path fill="#fdfdfc" opacity="1.00" d=" M 256.80 59.36 C 258.27 57.70 259.61 55.70 261.81 54.95 C 263.17 55.12 264.52 55.31 265.88 55.50 C 265.69 58.71 264.25 61.65 261.14 62.91 C 259.72 61.69 258.25 60.53 256.80 59.36 Z" />
<path fill="#fdfdfc" opacity="1.00" d=" M 71.80 77.15 C 74.68 74.00 78.32 71.38 82.49 70.29 C 83.98 70.71 85.46 71.17 86.94 71.63 C 84.94 76.74 79.31 78.36 74.91 80.74 C 73.89 79.53 72.84 78.34 71.80 77.15 Z" />
<path fill="#fdfdfc" opacity="1.00" d=" M 425.34 72.08 C 434.15 69.51 443.76 70.41 452.23 73.79 C 464.35 78.86 473.16 90.22 476.62 102.73 C 478.77 108.92 478.86 115.53 479.21 121.99 C 478.68 141.40 474.07 160.40 469.25 179.12 C 456.96 222.66 442.18 265.43 428.38 308.51 C 414.88 348.74 401.86 389.13 388.57 429.44 C 385.35 438.92 380.86 448.58 372.59 454.68 C 361.42 463.20 344.76 463.83 333.08 455.96 C 323.98 449.84 319.03 439.50 315.93 429.31 C 304.16 391.56 291.51 354.09 279.40 316.45 C 276.53 307.37 274.10 298.14 270.64 289.27 C 269.52 289.25 268.41 289.23 267.31 289.23 C 254.75 329.14 241.34 368.79 228.72 408.68 C 225.75 417.90 222.86 427.15 219.51 436.24 C 215.88 446.20 208.65 455.44 198.51 459.29 C 187.01 463.66 173.11 461.41 163.83 453.23 C 156.89 447.42 153.04 438.89 150.41 430.43 C 138.50 391.84 126.36 353.33 114.49 314.73 C 106.12 288.52 98.45 262.09 89.91 235.94 C 88.13 230.57 85.82 225.21 81.88 221.06 C 77.64 216.44 71.69 214.06 66.85 210.21 C 58.33 204.00 53.12 193.54 53.27 183.00 C 53.22 171.76 59.44 160.88 68.88 154.87 C 83.79 145.47 104.22 147.57 118.08 157.96 C 126.49 164.01 132.36 172.88 136.82 182.08 C 140.80 191.10 143.17 200.70 146.25 210.03 C 158.49 252.53 171.98 294.66 183.69 337.30 C 184.89 340.53 184.47 345.80 188.94 346.28 C 190.71 345.76 192.07 344.44 192.39 342.59 C 197.95 321.54 204.29 300.70 210.79 279.92 C 219.64 249.93 229.18 220.16 238.20 190.22 C 240.30 182.95 244.27 175.90 250.64 171.56 C 260.47 164.43 274.45 164.14 284.84 170.27 C 291.39 173.97 295.80 180.55 298.26 187.53 C 306.67 213.65 314.13 240.08 322.57 266.20 C 329.19 287.73 335.82 309.26 342.15 330.87 C 343.65 335.44 344.18 340.36 346.25 344.71 C 347.60 347.04 350.27 346.08 352.19 345.17 C 355.43 334.34 358.04 323.32 361.64 312.59 C 371.75 279.07 381.90 245.57 391.95 212.03 C 397.49 194.16 401.99 175.80 402.92 157.04 C 403.97 145.77 401.88 134.52 399.11 123.64 C 396.41 112.94 396.35 100.95 401.99 91.16 C 406.82 82.05 415.32 74.78 425.34 72.08 Z" />
<path fill="#fdfdfc" opacity="1.00" d=" M 177.35 79.31 C 179.59 78.33 182.38 78.10 184.55 79.40 C 186.32 81.22 187.11 84.27 185.59 86.50 C 183.40 89.81 179.48 91.19 176.35 93.39 C 172.15 96.09 168.83 99.88 165.67 103.70 C 163.90 106.39 158.86 106.70 157.54 103.43 C 155.43 100.09 157.74 96.21 159.27 93.13 C 163.88 86.99 170.08 81.95 177.35 79.31 Z" />
<path fill="#fdfdfc" opacity="1.00" d=" M 317.05 91.27 C 319.96 88.26 323.75 86.22 327.12 83.76 C 329.08 82.29 333.09 84.41 331.04 86.80 C 327.47 90.55 322.50 92.67 318.95 96.53 C 317.36 95.31 315.33 93.27 317.05 91.27 Z" />
<path fill="#fdfdfc" opacity="1.00" d=" M 43.67 311.06 C 45.68 307.94 48.62 305.39 52.26 304.41 C 53.31 308.96 50.99 313.75 46.23 314.76 C 45.38 313.52 44.52 312.29 43.67 311.06 Z" />
<path fill="#fdfdfc" opacity="1.00" d=" M 457.59 324.25 C 461.04 320.02 466.35 317.72 471.80 318.18 C 472.43 318.57 473.07 318.97 473.73 319.36 C 468.61 319.69 466.18 324.95 461.69 326.54 C 459.80 327.21 458.66 325.43 457.59 324.25 Z" />
<path fill="#fdfdfc" opacity="1.00" d=" M 75.38 399.28 C 77.60 397.98 80.43 398.53 81.37 401.11 C 81.88 404.29 78.44 405.92 76.25 407.41 C 70.85 410.57 67.71 416.17 63.41 420.47 C 61.77 422.51 59.39 420.84 58.57 418.97 C 58.07 415.56 59.54 412.22 61.58 409.58 C 65.32 405.17 69.67 400.94 75.38 399.28 Z" />
<path fill="#fdfdfc" opacity="1.00" d=" M 441.36 399.23 C 443.06 398.40 446.19 397.81 446.63 400.41 C 447.74 403.53 444.21 404.76 442.33 406.37 C 439.94 408.00 438.54 410.84 435.87 412.07 C 433.08 412.91 430.55 409.64 431.77 407.04 C 433.45 403.04 437.55 400.81 441.36 399.23 Z" />
<path fill="#fdfdfc" opacity="1.00" d=" M 256.31 439.37 C 257.36 439.28 258.42 439.20 259.48 439.13 C 259.45 441.13 259.75 443.20 259.17 445.15 C 257.49 446.99 254.88 447.15 252.58 447.60 C 251.92 446.70 251.25 445.80 250.58 444.92 C 252.13 442.76 253.80 440.47 256.31 439.37 Z" />
</g>
<g id="#fe386aff">
<path fill="#fe386a" opacity="1.00" d=" M 184.34 73.21 C 195.01 71.58 206.35 73.86 215.59 79.44 C 226.69 85.74 233.50 98.02 234.85 110.51 C 236.75 119.57 234.87 128.87 231.39 137.29 C 225.77 148.88 214.83 157.64 202.29 160.56 C 192.46 162.61 181.94 161.51 172.81 157.33 C 164.90 152.21 156.61 146.65 151.93 138.21 C 149.55 133.14 147.30 127.75 147.38 122.05 C 147.34 115.48 146.56 108.55 149.49 102.43 C 152.57 92.67 160.02 84.98 168.12 79.08 C 172.74 75.41 178.69 74.30 184.34 73.21 M 177.35 79.31 C 170.08 81.95 163.88 86.99 159.27 93.13 C 157.74 96.21 155.43 100.09 157.54 103.43 C 158.86 106.70 163.90 106.39 165.67 103.70 C 168.83 99.88 172.15 96.09 176.35 93.39 C 179.48 91.19 183.40 89.81 185.59 86.50 C 187.11 84.27 186.32 81.22 184.55 79.40 C 182.38 78.10 179.59 78.33 177.35 79.31 Z" />
<path fill="#fe386a" opacity="1.00" d=" M 183.37 215.30 C 186.31 213.59 189.91 214.65 192.79 215.98 C 195.96 217.32 198.81 220.36 198.64 224.00 C 198.70 227.21 198.56 231.48 195.27 233.14 C 192.08 235.27 187.98 235.12 184.35 234.52 C 179.97 233.13 177.97 228.22 177.69 223.99 C 178.37 220.55 180.15 217.01 183.37 215.30 Z" />
<path fill="#fe386a" opacity="1.00" d=" M 446.47 394.80 C 453.18 394.22 460.90 394.02 466.37 398.61 C 469.51 401.46 472.68 404.37 475.14 407.85 C 479.72 415.44 480.88 424.96 478.54 433.47 C 476.25 441.29 469.68 446.81 462.72 450.47 C 459.33 451.83 455.58 451.58 451.99 451.71 C 441.74 452.21 431.36 446.35 427.01 436.93 C 417.71 421.12 428.17 397.67 446.47 394.80 M 441.36 399.23 C 437.55 400.81 433.45 403.04 431.77 407.04 C 430.55 409.64 433.08 412.91 435.87 412.07 C 438.54 410.84 439.94 408.00 442.33 406.37 C 444.21 404.76 447.74 403.53 446.63 400.41 C 446.19 397.81 443.06 398.40 441.36 399.23 Z" />
<path fill="#fe386a" opacity="1.00" d=" M 259.86 436.96 C 268.80 433.30 280.02 436.54 285.76 444.30 C 290.55 450.47 291.92 459.25 288.65 466.45 C 285.35 478.29 270.30 483.88 259.55 478.66 C 246.53 474.18 240.86 455.11 250.58 444.92 C 251.25 445.80 251.92 446.70 252.58 447.60 C 254.88 447.15 257.49 446.99 259.17 445.15 C 259.75 443.20 259.45 441.13 259.48 439.13 C 258.42 439.20 257.36 439.28 256.31 439.37 C 256.98 437.95 258.52 437.51 259.86 436.96 Z" />
</g>
<g id="#fe9702ff">
<path fill="#fe9702" opacity="1.00" d=" M 329.29 81.17 C 334.64 79.65 340.67 80.65 345.38 83.57 C 359.14 90.78 360.69 112.95 348.38 122.26 C 342.44 125.66 335.26 127.96 328.51 125.59 C 322.40 123.53 315.95 119.71 313.75 113.28 C 311.21 107.45 310.14 100.28 313.44 94.53 C 315.39 90.96 317.46 87.18 321.00 84.94 C 323.58 83.32 326.42 82.16 329.29 81.17 M 317.05 91.27 C 315.33 93.27 317.36 95.31 318.95 96.53 C 322.50 92.67 327.47 90.55 331.04 86.80 C 333.09 84.41 329.08 82.29 327.12 83.76 C 323.75 86.22 319.96 88.26 317.05 91.27 Z" />
<path fill="#fe9702" opacity="1.00" d=" M 334.40 160.56 C 337.78 159.91 341.94 159.70 344.41 162.58 C 347.87 165.52 348.19 170.40 347.48 174.58 C 345.13 178.15 340.92 181.29 336.43 180.48 C 331.35 179.82 327.29 175.08 327.43 169.96 C 326.88 165.58 330.52 161.87 334.40 160.56 Z" />
<path fill="#fe9702" opacity="1.00" d=" M 341.21 219.96 C 347.41 217.48 354.85 223.39 353.70 230.02 C 354.37 237.41 344.62 242.14 338.76 238.22 C 336.22 236.26 334.10 233.35 334.33 229.99 C 333.56 225.41 337.39 221.70 341.21 219.96 Z" />
<path fill="#fe9702" opacity="1.00" d=" M 78.31 393.35 C 87.84 391.38 98.07 393.67 106.14 399.02 C 119.98 409.25 123.80 430.23 114.86 444.85 C 109.98 452.99 101.28 458.56 91.93 459.97 C 84.01 461.45 75.82 459.49 68.63 456.13 C 61.99 451.09 55.67 444.72 53.41 436.46 C 50.27 426.94 51.38 415.72 57.59 407.66 C 59.98 404.45 62.37 401.12 65.65 398.75 C 69.44 396.11 73.82 394.39 78.31 393.35 M 75.38 399.28 C 69.67 400.94 65.32 405.17 61.58 409.58 C 59.54 412.22 58.07 415.56 58.57 418.97 C 59.39 420.84 61.77 422.51 63.41 420.47 C 67.71 416.17 70.85 410.57 76.25 407.41 C 78.44 405.92 81.88 404.29 81.37 401.11 C 80.43 398.53 77.60 397.98 75.38 399.28 Z" />
</g>
</svg>
