<?xml version="1.0" encoding="UTF-8" ?>
<!DOCTYPE svg PUBLIC "-//W3C//DTD SVG 1.1//EN" "http://www.w3.org/Graphics/SVG/1.1/DTD/svg11.dtd">
<svg width="1212pt" height="1156pt" viewBox="0 0 1212 1156" version="1.1" xmlns="http://www.w3.org/2000/svg">
<g id="#010c2aff">
<path fill="#010c2a" opacity="1.00" d=" M 57.14 64.17 C 93.77 25.26 146.58 2.27 200.02 2.02 C 415.99 1.67 631.96 1.89 847.93 1.98 C 855.64 2.10 863.35 1.63 871.06 1.97 C 909.71 3.43 947.79 16.45 979.42 38.68 C 1000.60 53.52 1018.68 72.67 1032.65 94.41 C 1051.16 123.56 1061.96 157.54 1063.98 192.00 C 1064.03 410.02 1063.99 628.05 1064.00 846.07 C 1063.92 856.06 1064.16 866.06 1063.88 876.06 C 1062.11 898.18 1057.20 920.13 1048.75 940.68 C 1053.50 941.59 1058.30 942.44 1062.87 944.04 C 1070.10 947.35 1076.17 953.15 1079.54 960.39 C 1080.81 963.99 1081.51 967.78 1082.33 971.52 C 1083.36 976.63 1081.56 981.65 1080.47 986.59 C 1079.88 989.47 1078.39 992.03 1076.78 994.45 C 1082.92 988.51 1091.98 988.49 1099.97 988.75 C 1108.79 989.05 1118.50 987.32 1126.41 992.23 C 1136.56 987.99 1147.81 985.13 1158.87 986.62 C 1163.94 987.61 1169.05 988.62 1173.93 990.40 C 1187.29 996.22 1196.62 1009.27 1199.40 1023.41 C 1202.15 1033.02 1202.77 1043.03 1202.48 1052.99 C 1202.48 1071.32 1202.46 1089.65 1202.49 1107.98 C 1202.31 1114.52 1200.17 1121.71 1194.11 1125.14 C 1186.38 1129.28 1177.33 1127.70 1168.93 1128.01 C 1161.57 1127.67 1154.02 1128.94 1146.85 1126.79 C 1142.67 1125.85 1139.46 1122.65 1137.30 1119.12 C 1135.24 1122.18 1132.64 1125.10 1129.08 1126.37 C 1120.67 1129.21 1111.68 1127.63 1102.99 1128.03 C 1093.99 1127.96 1083.13 1129.39 1076.51 1121.83 C 1069.86 1129.37 1059.00 1127.97 1049.99 1128.03 C 1041.51 1127.64 1032.79 1129.14 1024.55 1126.57 C 1022.00 1125.88 1020.05 1124.02 1017.99 1122.50 C 1013.49 1126.89 1007.03 1128.14 1000.95 1128.06 C 992.30 1127.99 983.65 1128.06 975.00 1128.04 C 968.68 1127.88 961.86 1125.84 958.34 1120.19 C 954.61 1125.98 947.55 1127.96 941.03 1128.05 C 932.02 1128.02 923.01 1128.03 914.00 1128.05 C 907.59 1127.97 900.64 1126.04 897.01 1120.33 C 893.38 1126.04 886.44 1127.97 880.04 1128.05 C 871.35 1128.04 862.66 1128.00 853.97 1128.06 C 847.97 1128.07 841.52 1126.78 837.31 1122.16 C 832.07 1127.58 824.13 1128.35 816.99 1128.05 C 807.51 1127.65 797.66 1129.35 788.59 1125.75 C 779.15 1129.00 769.01 1131.94 758.98 1129.87 C 752.04 1128.32 744.79 1127.15 738.61 1123.41 C 732.40 1119.62 726.49 1115.08 722.23 1109.12 C 721.31 1113.49 721.02 1118.40 717.79 1121.83 C 714.07 1126.60 707.72 1127.84 702.00 1128.05 C 695.34 1128.05 688.68 1128.00 682.03 1128.06 C 677.43 1128.13 672.86 1127.11 668.67 1125.25 C 658.34 1129.09 646.94 1132.27 635.94 1129.47 C 632.08 1128.52 628.14 1127.81 624.46 1126.31 C 613.62 1121.30 604.78 1112.11 600.46 1100.96 C 598.83 1095.73 597.48 1090.38 596.77 1084.95 C 595.90 1077.81 598.04 1070.84 599.74 1064.00 C 463.48 1064.00 327.22 1064.01 190.97 1063.99 C 176.25 1063.08 161.67 1060.24 147.46 1056.36 C 117.43 1048.09 89.59 1032.31 66.70 1011.24 C 30.70 978.21 7.22 931.73 2.89 882.99 C 1.33 864.70 2.27 846.33 1.92 828.00 C 0.83 715.65 1.69 603.31 1.49 490.96 C 1.71 403.97 0.81 316.97 1.99 229.98 C 2.12 208.61 1.05 187.00 5.30 165.92 C 12.03 127.86 30.55 92.14 57.14 64.17 M 523.61 109.91 C 519.23 111.39 516.50 115.41 513.58 118.75 C 513.91 119.01 514.57 119.53 514.90 119.79 C 514.53 119.51 513.79 118.95 513.42 118.67 C 505.19 124.16 503.14 134.76 503.26 144.00 C 503.27 160.98 517.55 176.11 534.15 178.37 C 553.33 181.27 572.87 165.20 574.15 145.94 C 575.59 130.62 567.06 114.57 552.90 108.16 C 543.64 104.01 532.19 104.21 523.61 109.91 M 165.40 140.60 C 156.84 142.41 149.50 147.98 143.62 154.28 C 139.67 159.73 134.87 165.12 133.87 172.04 C 131.90 183.58 132.46 196.15 138.52 206.46 C 143.59 216.19 153.07 222.62 162.76 227.14 C 183.24 234.47 208.20 224.46 218.18 205.19 C 228.42 184.65 220.38 157.09 200.66 145.33 C 190.23 139.21 177.02 136.37 165.40 140.60 M 832.19 152.16 C 817.37 161.17 806.05 175.38 799.64 191.41 C 794.20 205.58 793.64 221.22 795.93 236.10 C 797.03 243.56 799.23 250.79 800.84 258.15 C 803.93 271.88 806.18 285.86 806.37 299.96 C 806.01 338.91 797.93 377.34 786.78 414.52 C 763.74 490.86 740.96 567.28 717.57 643.51 C 713.03 659.11 708.99 674.85 704.37 690.43 C 700.84 691.97 695.57 693.92 692.88 689.98 C 688.58 681.89 687.61 672.58 684.96 663.90 C 668.90 609.60 652.42 555.41 635.34 501.41 C 622.40 459.67 610.20 417.70 596.84 376.08 C 593.50 366.09 588.21 356.63 580.79 349.09 C 560.35 328.74 525.13 326.13 501.68 342.81 C 489.23 351.17 481.19 364.72 476.88 378.84 C 466.52 413.23 455.83 447.52 445.23 481.83 C 434.00 517.80 423.51 554.00 412.25 589.96 C 402.46 621.85 393.04 653.87 384.52 686.13 C 383.48 690.23 378.44 694.31 374.35 691.46 C 369.83 688.63 369.54 682.75 368.33 678.09 C 352.18 619.08 334.32 560.57 316.71 501.99 C 304.56 462.34 293.61 422.32 280.80 382.88 C 275.74 367.03 268.29 351.96 258.47 338.52 C 246.94 322.51 230.78 309.64 212.07 303.12 C 189.84 295.23 164.21 295.70 143.09 306.69 C 121.30 317.76 106.45 341.46 106.54 365.97 C 106.25 386.58 116.20 407.05 132.58 419.56 C 144.40 429.02 159.59 434.65 168.31 447.64 C 174.43 456.17 178.06 466.16 181.20 476.09 C 195.00 518.60 207.70 561.46 221.00 604.13 C 234.30 646.33 247.20 688.65 260.42 730.87 C 274.05 774.60 287.67 818.32 301.20 862.07 C 306.42 878.53 314.10 895.02 327.55 906.37 C 348.28 924.67 380.61 928.26 404.83 914.92 C 420.58 906.11 431.89 890.83 438.34 874.21 C 445.34 855.51 451.26 836.44 457.40 817.46 C 482.64 737.63 509.47 658.31 534.60 578.45 C 536.82 578.46 539.05 578.49 541.28 578.52 C 549.69 600.32 555.28 623.06 562.76 645.17 C 585.97 716.93 610.01 788.43 632.43 860.44 C 637.39 876.16 644.49 891.70 656.18 903.59 C 675.19 923.45 706.78 928.11 731.60 917.25 C 742.31 912.64 751.72 905.12 758.77 895.84 C 767.02 885.07 772.44 872.47 776.83 859.72 C 801.25 785.77 825.16 711.65 849.81 637.77 C 858.87 610.98 867.31 583.98 876.19 557.13 C 897.81 491.02 919.67 424.96 938.53 357.99 C 948.09 320.96 957.19 283.41 958.35 245.01 C 957.89 231.51 957.48 217.73 953.07 204.83 C 948.31 188.37 939.17 173.10 926.41 161.62 C 901.46 138.72 861.14 134.40 832.19 152.16 M 366.57 146.81 C 358.75 148.34 350.83 149.99 343.63 153.52 C 339.00 155.75 335.01 159.04 330.98 162.17 C 320.06 170.85 310.18 181.21 303.65 193.64 C 301.20 198.19 299.59 203.12 297.70 207.91 C 294.40 216.52 294.38 225.91 294.57 234.99 C 294.84 241.71 294.35 248.53 295.95 255.13 C 297.77 262.94 300.86 270.43 304.53 277.55 C 313.08 292.29 327.21 302.54 341.16 311.77 C 347.76 316.53 355.75 318.75 363.53 320.71 C 381.72 324.74 401.37 324.00 418.59 316.50 C 437.60 308.35 453.68 293.33 462.69 274.67 C 468.10 261.87 471.47 248.02 471.17 234.07 C 471.09 227.58 469.70 221.22 468.77 214.82 C 464.68 191.63 450.91 169.58 429.95 158.16 C 411.01 147.18 388.15 142.91 366.57 146.81 M 661.40 161.65 C 654.34 163.42 647.54 166.38 641.40 170.27 C 633.90 175.39 629.67 183.77 625.59 191.61 C 619.93 204.26 623.52 218.78 629.31 230.71 C 635.13 241.52 646.61 247.75 657.89 251.46 C 669.53 255.23 682.12 252.04 692.73 246.69 C 698.49 244.12 702.90 239.30 706.28 234.09 C 713.60 222.46 715.16 207.71 711.65 194.54 C 708.73 183.37 701.63 173.08 691.40 167.47 C 682.56 161.96 671.67 159.59 661.40 161.65 M 670.55 320.78 C 663.70 322.12 657.54 327.34 655.35 334.02 C 653.72 340.88 655.30 348.61 660.06 353.92 C 665.28 360.08 674.42 363.02 682.08 360.01 C 687.35 357.86 691.99 353.93 694.88 349.03 C 696.57 340.79 695.50 331.00 688.88 325.12 C 684.31 320.03 676.85 319.70 670.55 320.78 M 368.46 429.76 C 362.07 432.33 357.94 438.53 356.10 444.96 C 354.68 448.88 356.00 453.07 357.24 456.86 C 359.27 462.52 363.58 468.09 369.81 469.21 C 377.82 470.55 387.09 470.04 393.32 464.20 C 397.31 459.85 397.29 453.49 397.31 447.94 C 397.52 441.10 392.51 435.24 386.58 432.44 C 381.05 429.78 374.52 427.48 368.46 429.76 M 683.36 439.56 C 677.42 441.93 671.95 446.34 669.46 452.35 C 666.58 460.80 669.66 470.72 676.93 475.96 C 688.57 484.75 708.62 474.97 707.55 459.97 C 709.48 447.21 695.58 435.46 683.36 439.56 M 104.68 607.10 C 104.71 608.59 104.72 610.09 104.73 611.60 C 104.58 610.92 104.30 609.56 104.16 608.88 C 97.09 610.94 91.35 616.03 87.29 622.04 L 87.40 622.20 C 76.35 634.91 74.58 653.98 80.31 669.44 C 86.79 686.15 102.55 698.70 120.13 701.83 C 133.48 704.13 147.70 700.63 158.65 692.70 C 177.75 679.39 182.62 651.15 172.11 631.00 C 166.16 618.63 155.90 607.23 142.12 603.93 C 129.75 601.38 116.10 600.88 104.68 607.10 M 915.12 648.54 C 912.23 652.84 909.05 657.08 907.41 662.06 C 906.01 666.20 906.33 670.65 906.71 674.94 C 908.81 692.47 926.41 706.34 943.94 704.51 C 954.17 703.54 962.96 697.07 969.44 689.44 C 974.59 683.26 975.75 674.81 975.29 667.03 C 975.14 659.89 971.64 653.27 967.15 647.90 C 961.44 641.26 953.05 636.30 944.09 636.54 C 933.22 635.04 921.97 640.10 915.12 648.54 M 162.53 785.74 C 152.38 786.99 142.51 790.50 133.79 795.83 C 125.39 800.93 119.70 809.19 113.97 816.95 C 102.57 832.98 100.80 854.49 106.79 872.93 C 111.40 889.28 123.72 902.11 137.04 912.00 C 144.80 916.02 153.32 918.58 161.93 920.05 C 179.42 922.87 198.02 918.63 212.43 908.29 C 224.68 899.65 233.51 886.46 237.15 871.95 C 243.99 845.52 234.75 814.86 212.61 798.32 C 198.09 788.45 180.00 783.79 162.53 785.74 M 534.42 785.60 C 530.64 786.58 526.89 788.21 524.20 791.13 C 518.26 797.38 516.73 807.13 519.73 815.11 C 522.08 821.17 527.31 826.64 534.08 827.23 C 540.66 827.87 548.15 827.87 553.52 823.42 C 563.84 815.46 564.04 797.46 553.50 789.62 C 548.18 785.52 540.95 783.82 534.42 785.60 M 892.49 789.71 C 884.02 791.05 876.03 794.86 869.40 800.26 C 848.30 817.35 840.10 850.03 854.04 874.02 C 862.68 892.36 882.88 904.08 903.02 903.43 C 911.28 903.03 920.23 904.02 927.70 899.72 C 940.22 892.70 951.92 882.44 956.59 868.46 C 960.56 855.62 960.30 841.55 956.20 828.77 C 954.11 822.44 951.27 816.22 946.79 811.20 C 941.97 805.68 936.71 800.52 931.03 795.90 C 919.92 788.01 905.44 788.40 892.49 789.71 M 520.39 873.64 C 517.57 874.79 514.17 875.70 512.76 878.69 C 507.64 880.80 504.32 885.50 501.15 889.81 C 501.57 890.36 502.40 891.47 502.81 892.02 C 502.38 891.48 501.53 890.41 501.10 889.87 C 497.74 893.55 495.04 897.86 493.47 902.61 C 486.34 923.86 498.10 950.11 519.58 957.58 C 539.29 966.67 565.88 958.21 575.26 938.27 C 578.69 930.30 581.62 921.79 580.75 912.98 C 579.81 898.43 571.38 884.50 558.69 877.23 C 547.27 870.56 532.82 868.85 520.39 873.64 M 1041.55 958.76 C 1039.15 959.30 1036.83 960.31 1034.88 961.82 C 1026.27 968.21 1026.77 983.39 1036.00 989.00 C 1042.56 992.89 1051.39 992.88 1057.94 988.96 C 1066.98 983.51 1067.74 968.87 1059.61 962.30 C 1054.66 958.18 1047.67 957.45 1041.55 958.76 M 791.34 964.06 C 791.50 980.80 790.73 997.59 792.46 1014.28 C 789.33 1011.42 785.98 1008.75 782.21 1006.79 C 776.68 1003.87 770.22 1003.29 764.08 1003.77 C 751.24 1005.03 739.95 1013.47 733.26 1024.25 C 727.12 1033.66 724.54 1044.97 724.33 1056.11 C 724.17 1066.97 725.36 1078.10 729.75 1088.14 C 732.89 1095.42 737.81 1102.07 744.42 1106.55 C 752.12 1111.87 761.84 1113.86 771.09 1112.86 C 780.24 1111.70 788.26 1106.39 794.85 1100.20 C 795.82 1103.62 796.61 1107.09 797.40 1110.57 C 806.29 1110.59 815.18 1110.54 824.07 1110.60 C 824.18 1061.75 824.09 1012.90 824.12 964.05 C 813.19 964.05 802.26 964.04 791.34 964.06 M 1009.11 1001.46 C 1010.34 1003.38 1011.72 1005.22 1013.17 1007.01 C 1013.98 1003.90 1014.18 1000.54 1015.83 997.72 C 1016.47 996.27 1018.14 994.89 1016.97 993.15 C 1014.19 995.77 1011.80 998.76 1009.11 1001.46 M 617.48 1017.43 C 621.33 1024.58 625.09 1031.79 628.92 1038.96 C 639.20 1033.41 650.90 1027.59 662.88 1030.59 C 668.63 1031.80 671.57 1037.58 672.00 1042.99 C 659.83 1044.42 647.53 1046.39 636.15 1051.14 C 628.17 1054.44 620.56 1059.88 616.86 1067.91 C 610.85 1081.18 614.50 1098.75 626.52 1107.45 C 634.06 1113.11 644.17 1114.15 653.19 1112.26 C 661.74 1110.39 668.95 1105.10 675.66 1099.75 C 676.50 1103.35 677.21 1106.97 678.03 1110.59 C 686.92 1110.56 695.80 1110.58 704.70 1110.57 C 704.71 1091.72 704.69 1072.87 704.71 1054.03 C 704.74 1044.19 704.06 1034.05 699.97 1024.97 C 696.76 1017.65 691.10 1011.34 683.83 1007.93 C 674.24 1003.37 663.21 1002.95 652.84 1004.26 C 640.27 1006.02 628.29 1010.88 617.48 1017.43 M 879.26 1019.64 C 878.43 1015.15 877.63 1010.66 876.81 1006.18 C 867.92 1006.18 859.02 1006.17 850.13 1006.18 C 850.12 1040.98 850.12 1075.77 850.13 1110.57 C 861.04 1110.57 871.95 1110.57 882.87 1110.57 C 882.87 1087.35 882.89 1064.12 882.86 1040.90 C 886.84 1036.93 891.37 1033.02 897.03 1031.86 C 901.28 1031.08 906.47 1032.15 908.84 1036.10 C 911.18 1040.33 911.17 1045.35 911.29 1050.07 C 911.31 1070.23 911.29 1090.40 911.30 1110.57 C 922.20 1110.58 933.10 1110.56 943.99 1110.58 C 944.01 1087.37 944.00 1064.16 944.00 1040.96 C 949.56 1035.43 957.31 1029.44 965.62 1032.41 C 971.58 1034.50 972.15 1041.69 972.46 1047.06 C 972.64 1068.22 972.48 1089.40 972.54 1110.57 C 983.45 1110.57 994.37 1110.58 1005.29 1110.56 C 1005.29 1092.71 1005.29 1074.85 1005.29 1057.00 C 1005.33 1044.93 1005.82 1032.33 1000.80 1021.06 C 997.85 1013.85 992.06 1007.62 984.46 1005.34 C 975.34 1002.61 964.93 1002.87 956.47 1007.50 C 950.38 1011.09 945.01 1015.75 940.01 1020.71 C 937.04 1014.80 932.58 1009.41 926.49 1006.58 C 919.20 1003.27 910.82 1002.98 903.05 1004.44 C 893.53 1006.37 886.21 1013.32 879.26 1019.64 M 1130.31 1010.25 C 1126.05 1012.65 1122.72 1016.38 1118.71 1019.04 C 1117.79 1014.77 1117.16 1010.45 1116.30 1006.18 C 1107.41 1006.18 1098.52 1006.17 1089.63 1006.18 C 1089.62 1040.97 1089.63 1075.77 1089.63 1110.57 C 1100.54 1110.58 1111.45 1110.58 1122.37 1110.57 C 1122.43 1087.47 1122.25 1064.36 1122.46 1041.27 C 1125.37 1037.58 1129.47 1034.48 1133.86 1032.61 C 1138.77 1031.09 1145.18 1030.83 1148.95 1034.93 C 1152.05 1038.89 1152.05 1044.25 1152.25 1049.05 C 1152.30 1069.56 1152.24 1090.07 1152.28 1110.59 C 1163.17 1110.45 1174.07 1110.51 1184.96 1110.52 C 1185.02 1088.66 1184.97 1066.79 1184.99 1044.93 C 1184.92 1034.75 1183.24 1024.13 1177.62 1015.45 C 1174.22 1010.05 1168.60 1006.28 1162.46 1004.77 C 1151.60 1002.17 1139.57 1003.82 1130.31 1010.25 M 1030.64 1006.17 C 1030.62 1040.97 1030.63 1075.77 1030.63 1110.57 C 1041.54 1110.58 1052.45 1110.58 1063.37 1110.57 C 1063.37 1075.77 1063.38 1040.97 1063.37 1006.18 C 1052.45 1006.17 1041.54 1006.18 1030.64 1006.17 Z" />
<path fill="#010c2a" opacity="1.00" d=" M 772.44 1030.60 C 779.08 1029.73 786.77 1031.54 791.26 1036.73 C 791.38 1050.18 791.39 1063.65 791.26 1077.10 C 786.93 1086.98 771.80 1089.47 764.35 1081.68 C 759.56 1076.38 758.51 1068.91 758.07 1062.06 C 757.73 1054.44 758.06 1046.40 761.69 1039.52 C 763.87 1035.26 767.68 1031.65 772.44 1030.60 Z" />
<path fill="#010c2a" opacity="1.00" d=" M 652.52 1068.22 C 658.52 1065.00 665.34 1063.89 672.00 1062.91 C 671.98 1068.48 672.04 1074.06 671.95 1079.64 C 668.52 1082.95 664.81 1086.48 659.94 1087.37 C 656.08 1087.99 651.78 1087.90 648.40 1085.70 C 645.08 1083.56 644.53 1078.99 645.69 1075.50 C 646.78 1072.20 649.53 1069.80 652.52 1068.22 Z" />
</g>
<g id="#42c5fdff">
<path fill="#42c5fd" opacity="1.00" d=" M 523.61 109.91 C 532.19 104.21 543.64 104.01 552.90 108.16 C 567.06 114.57 575.59 130.62 574.15 145.94 C 572.87 165.20 553.33 181.27 534.15 178.37 C 517.55 176.11 503.27 160.98 503.26 144.00 C 503.14 134.76 505.19 124.16 513.42 118.67 C 513.79 118.95 514.53 119.51 514.90 119.79 C 517.51 121.81 520.08 123.88 522.68 125.92 C 528.19 122.95 531.39 117.22 531.84 111.07 C 529.09 110.66 526.37 110.20 523.61 109.91 Z" />
<path fill="#42c5fd" opacity="1.00" d=" M 165.40 140.60 C 177.02 136.37 190.23 139.21 200.66 145.33 C 220.38 157.09 228.42 184.65 218.18 205.19 C 208.20 224.46 183.24 234.47 162.76 227.14 C 153.07 222.62 143.59 216.19 138.52 206.46 C 132.46 196.15 131.90 183.58 133.87 172.04 C 134.87 165.12 139.67 159.73 143.62 154.28 C 145.71 156.63 147.77 159.00 149.85 161.36 C 158.79 156.87 169.36 153.16 174.02 143.51 C 171.17 142.49 168.30 141.49 165.40 140.60 Z" />
<path fill="#42c5fd" opacity="1.00" d=" M 104.68 607.10 C 116.10 600.88 129.75 601.38 142.12 603.93 C 155.90 607.23 166.16 618.63 172.11 631.00 C 182.62 651.15 177.75 679.39 158.65 692.70 C 147.70 700.63 133.48 704.13 120.13 701.83 C 102.55 698.70 86.79 686.15 80.31 669.44 C 74.58 653.98 76.35 634.91 87.40 622.20 C 89.17 624.69 90.93 627.19 92.70 629.68 C 100.43 627.52 106.02 619.66 104.73 611.60 C 104.72 610.09 104.71 608.59 104.68 607.10 Z" />
<path fill="#42c5fd" opacity="1.00" d=" M 944.09 636.54 C 953.05 636.30 961.44 641.26 967.15 647.90 C 971.64 653.27 975.14 659.89 975.29 667.03 C 975.75 674.81 974.59 683.26 969.44 689.44 C 962.96 697.07 954.17 703.54 943.94 704.51 C 926.41 706.34 908.81 692.47 906.71 674.94 C 906.33 670.65 906.01 666.20 907.41 662.06 C 909.05 657.08 912.23 652.84 915.12 648.54 C 917.42 650.72 920.06 654.47 923.73 652.80 C 932.22 649.34 937.20 640.01 946.68 638.44 C 946.03 637.96 944.74 637.01 944.09 636.54 Z" />
<path fill="#42c5fd" opacity="1.00" d=" M 534.42 785.60 C 540.95 783.82 548.18 785.52 553.50 789.62 C 564.04 797.46 563.84 815.46 553.52 823.42 C 548.15 827.87 540.66 827.87 534.08 827.23 C 527.31 826.64 522.08 821.17 519.73 815.11 C 516.73 807.13 518.26 797.38 524.20 791.13 C 526.89 788.21 530.64 786.58 534.42 785.60 Z" />
</g>
<g id="#fdfdfcff">
<path fill="#fdfdfc" opacity="1.00" d=" M 513.58 118.75 C 516.50 115.41 519.23 111.39 523.61 109.91 C 526.37 110.20 529.09 110.66 531.84 111.07 C 531.39 117.22 528.19 122.95 522.68 125.92 C 520.08 123.88 517.51 121.81 514.90 119.79 C 514.57 119.53 513.91 119.01 513.58 118.75 Z" />
<path fill="#fdfdfc" opacity="1.00" d=" M 143.62 154.28 C 149.50 147.98 156.84 142.41 165.40 140.60 C 168.30 141.49 171.17 142.49 174.02 143.51 C 169.36 153.16 158.79 156.87 149.85 161.36 C 147.77 159.00 145.71 156.63 143.62 154.28 Z" />
<path fill="#fdfdfc" opacity="1.00" d=" M 832.19 152.16 C 861.14 134.40 901.46 138.72 926.41 161.62 C 939.17 173.10 948.31 188.37 953.07 204.83 C 957.48 217.73 957.89 231.51 958.35 245.01 C 957.19 283.41 948.09 320.96 938.53 357.99 C 919.67 424.96 897.81 491.02 876.19 557.13 C 867.31 583.98 858.87 610.98 849.81 637.77 C 825.16 711.65 801.25 785.77 776.83 859.72 C 772.44 872.47 767.02 885.07 758.77 895.84 C 751.72 905.12 742.31 912.64 731.60 917.25 C 706.78 928.11 675.19 923.45 656.18 903.59 C 644.49 891.70 637.39 876.16 632.43 860.44 C 610.01 788.43 585.97 716.93 562.76 645.17 C 555.28 623.06 549.69 600.32 541.28 578.52 C 539.05 578.49 536.82 578.46 534.60 578.45 C 509.47 658.31 482.64 737.63 457.40 817.46 C 451.26 836.44 445.34 855.51 438.34 874.21 C 431.89 890.83 420.58 906.11 404.83 914.92 C 380.61 928.26 348.28 924.67 327.55 906.37 C 314.10 895.02 306.42 878.53 301.20 862.07 C 287.67 818.32 274.05 774.60 260.42 730.87 C 247.20 688.65 234.30 646.33 221.00 604.13 C 207.70 561.46 195.00 518.60 181.20 476.09 C 178.06 466.16 174.43 456.17 168.31 447.64 C 159.59 434.65 144.40 429.02 132.58 419.56 C 116.20 407.05 106.25 386.58 106.54 365.97 C 106.45 341.46 121.30 317.76 143.09 306.69 C 164.21 295.70 189.84 295.23 212.07 303.12 C 230.78 309.64 246.94 322.51 258.47 338.52 C 268.29 351.96 275.74 367.03 280.80 382.88 C 293.61 422.32 304.56 462.34 316.71 501.99 C 334.32 560.57 352.18 619.08 368.33 678.09 C 369.54 682.75 369.83 688.63 374.35 691.46 C 378.44 694.31 383.48 690.23 384.52 686.13 C 393.04 653.87 402.46 621.85 412.25 589.96 C 423.51 554.00 434.00 517.80 445.23 481.83 C 455.83 447.52 466.52 413.23 476.88 378.84 C 481.19 364.72 489.23 351.17 501.68 342.81 C 525.13 326.13 560.35 328.74 580.79 349.09 C 588.21 356.63 593.50 366.09 596.84 376.08 C 610.20 417.70 622.40 459.67 635.34 501.41 C 652.42 555.41 668.90 609.60 684.96 663.90 C 687.61 672.58 688.58 681.89 692.88 689.98 C 695.57 693.92 700.84 691.97 704.37 690.43 C 708.99 674.85 713.03 659.11 717.57 643.51 C 740.96 567.28 763.74 490.86 786.78 414.52 C 797.93 377.34 806.01 338.91 806.37 299.96 C 806.18 285.86 803.93 271.88 800.84 258.15 C 799.23 250.79 797.03 243.56 795.93 236.10 C 793.64 221.22 794.20 205.58 799.64 191.41 C 806.05 175.38 817.37 161.17 832.19 152.16 Z" />
<path fill="#fdfdfc" opacity="1.00" d=" M 357.39 157.72 C 361.23 156.62 365.75 156.63 369.15 158.96 C 372.94 162.67 374.14 169.32 370.68 173.65 C 366.49 179.38 359.71 182.12 353.95 185.89 C 345.02 191.41 337.91 199.29 331.34 207.37 C 328.64 211.10 323.34 212.60 319.09 210.84 C 314.21 208.50 312.46 202.04 313.92 197.09 C 315.52 191.60 318.07 186.27 321.95 182.02 C 331.32 170.98 343.52 162.13 357.39 157.72 Z" />
<path fill="#fdfdfc" opacity="1.00" d=" M 654.44 167.47 C 657.95 164.52 665.77 168.78 662.28 173.28 C 655.02 181.03 645.02 185.49 637.57 193.07 C 635.69 190.98 633.08 189.04 632.79 186.02 C 632.58 183.80 634.39 182.22 635.84 180.84 C 641.53 175.72 648.17 171.82 654.44 167.47 Z" />
<path fill="#fdfdfc" opacity="1.00" d=" M 87.29 622.04 C 91.35 616.03 97.09 610.94 104.16 608.88 C 104.30 609.56 104.58 610.92 104.73 611.60 C 106.02 619.66 100.43 627.52 92.70 629.68 C 90.93 627.19 89.17 624.69 87.40 622.20 L 87.29 622.04 Z" />
<path fill="#fdfdfc" opacity="1.00" d=" M 915.12 648.54 C 921.97 640.10 933.22 635.04 944.09 636.54 C 944.74 637.01 946.03 637.96 946.68 638.44 C 937.20 640.01 932.22 649.34 923.73 652.80 C 920.06 654.47 917.42 650.72 915.12 648.54 Z" />
<path fill="#fdfdfc" opacity="1.00" d=" M 153.41 797.54 C 156.63 796.51 160.45 797.88 162.11 800.87 C 163.62 803.37 162.56 806.61 160.72 808.64 C 157.27 812.40 152.43 814.41 148.45 817.52 C 140.72 823.45 135.34 831.71 128.83 838.83 C 127.52 840.17 126.33 841.74 124.61 842.58 C 121.42 843.50 118.40 840.79 117.24 838.03 C 116.13 832.01 118.52 825.91 121.85 820.99 C 129.83 810.40 140.38 801.12 153.41 797.54 Z" />
<path fill="#fdfdfc" opacity="1.00" d=" M 885.44 797.48 C 887.69 796.86 890.63 796.66 892.30 798.63 C 893.73 800.91 894.29 804.23 892.45 806.47 C 890.14 809.29 886.75 810.87 883.99 813.17 C 879.66 816.44 876.90 821.59 871.90 823.99 C 868.24 825.45 864.23 822.52 863.25 818.99 C 862.12 815.48 864.34 812.11 866.34 809.41 C 871.18 803.46 878.36 800.00 885.44 797.48 Z" />
<path fill="#fdfdfc" opacity="1.00" d=" M 501.15 889.81 C 504.32 885.50 507.64 880.80 512.76 878.69 C 514.82 878.50 516.88 878.41 518.94 878.30 C 518.90 882.27 519.51 886.43 518.23 890.27 C 515.00 893.96 509.71 894.23 505.22 895.17 C 504.41 894.10 503.61 893.06 502.81 892.02 C 502.40 891.47 501.57 890.36 501.15 889.81 Z" />
<path fill="#fdfdfc" opacity="1.00" d=" M 1041.55 958.76 C 1047.67 957.45 1054.66 958.18 1059.61 962.30 C 1067.74 968.87 1066.98 983.51 1057.94 988.96 C 1051.39 992.88 1042.56 992.89 1036.00 989.00 C 1026.77 983.39 1026.27 968.21 1034.88 961.82 C 1036.83 960.31 1039.15 959.30 1041.55 958.76 Z" />
<path fill="#fdfdfc" opacity="1.00" d=" M 791.34 964.06 C 802.26 964.04 813.19 964.05 824.12 964.05 C 824.09 1012.90 824.18 1061.75 824.07 1110.60 C 815.18 1110.54 806.29 1110.59 797.40 1110.57 C 796.61 1107.09 795.82 1103.62 794.85 1100.20 C 788.26 1106.39 780.24 1111.70 771.09 1112.86 C 761.84 1113.86 752.12 1111.87 744.42 1106.55 C 737.81 1102.07 732.89 1095.42 729.75 1088.14 C 725.36 1078.10 724.17 1066.97 724.33 1056.11 C 724.54 1044.97 727.12 1033.66 733.26 1024.25 C 739.95 1013.47 751.24 1005.03 764.08 1003.77 C 770.22 1003.29 776.68 1003.87 782.21 1006.79 C 785.98 1008.75 789.33 1011.42 792.46 1014.28 C 790.73 997.59 791.50 980.80 791.34 964.06 M 772.44 1030.60 C 767.68 1031.65 763.87 1035.26 761.69 1039.52 C 758.06 1046.40 757.73 1054.44 758.07 1062.06 C 758.51 1068.91 759.56 1076.38 764.35 1081.68 C 771.80 1089.47 786.93 1086.98 791.26 1077.10 C 791.39 1063.65 791.38 1050.18 791.26 1036.73 C 786.77 1031.54 779.08 1029.73 772.44 1030.60 Z" />
<path fill="#fdfdfc" opacity="1.00" d=" M 617.48 1017.43 C 628.29 1010.88 640.27 1006.02 652.84 1004.26 C 663.21 1002.95 674.24 1003.37 683.83 1007.93 C 691.10 1011.34 696.76 1017.65 699.97 1024.97 C 704.06 1034.05 704.74 1044.19 704.71 1054.03 C 704.69 1072.87 704.71 1091.72 704.70 1110.57 C 695.80 1110.58 686.92 1110.56 678.03 1110.59 C 677.21 1106.97 676.50 1103.35 675.66 1099.75 C 668.95 1105.10 661.74 1110.39 653.19 1112.26 C 644.17 1114.15 634.06 1113.11 626.52 1107.45 C 614.50 1098.75 610.85 1081.18 616.86 1067.91 C 620.56 1059.88 628.17 1054.44 636.15 1051.14 C 647.53 1046.39 659.83 1044.42 672.00 1042.99 C 671.57 1037.58 668.63 1031.80 662.88 1030.59 C 650.90 1027.59 639.20 1033.41 628.92 1038.96 C 625.09 1031.79 621.33 1024.58 617.48 1017.43 M 652.52 1068.22 C 649.53 1069.80 646.78 1072.20 645.69 1075.50 C 644.53 1078.99 645.08 1083.56 648.40 1085.70 C 651.78 1087.90 656.08 1087.99 659.94 1087.37 C 664.81 1086.48 668.52 1082.95 671.95 1079.64 C 672.04 1074.06 671.98 1068.48 672.00 1062.91 C 665.34 1063.89 658.52 1065.00 652.52 1068.22 Z" />
<path fill="#fdfdfc" opacity="1.00" d=" M 879.26 1019.64 C 886.21 1013.32 893.53 1006.37 903.05 1004.44 C 910.82 1002.98 919.20 1003.27 926.49 1006.58 C 932.58 1009.41 937.04 1014.80 940.01 1020.71 C 945.01 1015.75 950.38 1011.09 956.47 1007.50 C 964.93 1002.87 975.34 1002.61 984.46 1005.34 C 992.06 1007.62 997.85 1013.85 1000.80 1021.06 C 1005.82 1032.33 1005.33 1044.93 1005.29 1057.00 C 1005.29 1074.85 1005.29 1092.71 1005.29 1110.56 C 994.37 1110.58 983.45 1110.57 972.54 1110.57 C 972.48 1089.40 972.64 1068.22 972.46 1047.06 C 972.15 1041.69 971.58 1034.50 965.62 1032.41 C 957.31 1029.44 949.56 1035.43 944.00 1040.96 C 944.00 1064.16 944.01 1087.37 943.99 1110.58 C 933.10 1110.56 922.20 1110.58 911.30 1110.57 C 911.29 1090.40 911.31 1070.23 911.29 1050.07 C 911.17 1045.35 911.18 1040.33 908.84 1036.10 C 906.47 1032.15 901.28 1031.08 897.03 1031.86 C 891.37 1033.02 886.84 1036.93 882.86 1040.90 C 882.89 1064.12 882.87 1087.35 882.87 1110.57 C 871.95 1110.57 861.04 1110.57 850.13 1110.57 C 850.12 1075.77 850.12 1040.98 850.13 1006.18 C 859.02 1006.17 867.92 1006.18 876.81 1006.18 C 877.63 1010.66 878.43 1015.15 879.26 1019.64 Z" />
<path fill="#fdfdfc" opacity="1.00" d=" M 1130.31 1010.25 C 1139.57 1003.82 1151.60 1002.17 1162.46 1004.77 C 1168.60 1006.28 1174.22 1010.05 1177.62 1015.45 C 1183.24 1024.13 1184.92 1034.75 1184.99 1044.93 C 1184.97 1066.79 1185.02 1088.66 1184.96 1110.52 C 1174.07 1110.51 1163.17 1110.45 1152.28 1110.59 C 1152.24 1090.07 1152.30 1069.56 1152.25 1049.05 C 1152.05 1044.25 1152.05 1038.89 1148.95 1034.93 C 1145.18 1030.83 1138.77 1031.09 1133.86 1032.61 C 1129.47 1034.48 1125.37 1037.58 1122.46 1041.27 C 1122.25 1064.36 1122.43 1087.47 1122.37 1110.57 C 1111.45 1110.58 1100.54 1110.58 1089.63 1110.57 C 1089.63 1075.77 1089.62 1040.97 1089.63 1006.18 C 1098.52 1006.17 1107.41 1006.18 1116.30 1006.18 C 1117.16 1010.45 1117.79 1014.77 1118.71 1019.04 C 1122.72 1016.38 1126.05 1012.65 1130.31 1010.25 Z" />
<path fill="#fdfdfc" opacity="1.00" d=" M 1030.64 1006.17 C 1041.54 1006.18 1052.45 1006.17 1063.37 1006.18 C 1063.38 1040.97 1063.37 1075.77 1063.37 1110.57 C 1052.45 1110.58 1041.54 1110.58 1030.63 1110.57 C 1030.63 1075.77 1030.62 1040.97 1030.64 1006.17 Z" />
</g>
<g id="#fe386aff">
<path fill="#fe386a" opacity="1.00" d=" M 366.57 146.81 C 388.15 142.91 411.01 147.18 429.95 158.16 C 450.91 169.58 464.68 191.63 468.77 214.82 C 469.70 221.22 471.09 227.58 471.17 234.07 C 471.47 248.02 468.10 261.87 462.69 274.67 C 453.68 293.33 437.60 308.35 418.59 316.50 C 401.37 324.00 381.72 324.74 363.53 320.71 C 355.75 318.75 347.76 316.53 341.16 311.77 C 327.21 302.54 313.08 292.29 304.53 277.55 C 300.86 270.43 297.77 262.94 295.95 255.13 C 294.35 248.53 294.84 241.71 294.57 234.99 C 294.38 225.91 294.40 216.52 297.70 207.91 C 299.59 203.12 301.20 198.19 303.65 193.64 C 310.18 181.21 320.06 170.85 330.98 162.17 C 335.01 159.04 339.00 155.75 343.63 153.52 C 350.83 149.99 358.75 148.34 366.57 146.81 M 357.39 157.72 C 343.52 162.13 331.32 170.98 321.95 182.02 C 318.07 186.27 315.52 191.60 313.92 197.09 C 312.46 202.04 314.21 208.50 319.09 210.84 C 323.34 212.60 328.64 211.10 331.34 207.37 C 337.91 199.29 345.02 191.41 353.95 185.89 C 359.71 182.12 366.49 179.38 370.68 173.65 C 374.14 169.32 372.94 162.67 369.15 158.96 C 365.75 156.63 361.23 156.62 357.39 157.72 Z" />
<path fill="#fe386a" opacity="1.00" d=" M 368.46 429.76 C 374.52 427.48 381.05 429.78 386.58 432.44 C 392.51 435.24 397.52 441.10 397.31 447.94 C 397.29 453.49 397.31 459.85 393.32 464.20 C 387.09 470.04 377.82 470.55 369.81 469.21 C 363.58 468.09 359.27 462.52 357.24 456.86 C 356.00 453.07 354.68 448.88 356.10 444.96 C 357.94 438.53 362.07 432.33 368.46 429.76 Z" />
<path fill="#fe386a" opacity="1.00" d=" M 892.49 789.71 C 905.44 788.40 919.92 788.01 931.03 795.90 C 936.71 800.52 941.97 805.68 946.79 811.20 C 951.27 816.22 954.11 822.44 956.20 828.77 C 960.30 841.55 960.56 855.62 956.59 868.46 C 951.92 882.44 940.22 892.70 927.70 899.72 C 920.23 904.02 911.28 903.03 903.02 903.43 C 882.88 904.08 862.68 892.36 854.04 874.02 C 840.10 850.03 848.30 817.35 869.40 800.26 C 876.03 794.86 884.02 791.05 892.49 789.71 M 885.44 797.48 C 878.36 800.00 871.18 803.46 866.34 809.41 C 864.34 812.11 862.12 815.48 863.25 818.99 C 864.23 822.52 868.24 825.45 871.90 823.99 C 876.90 821.59 879.66 816.44 883.99 813.17 C 886.75 810.87 890.14 809.29 892.45 806.47 C 894.29 804.23 893.73 800.91 892.30 798.63 C 890.63 796.66 887.69 796.86 885.44 797.48 Z" />
<path fill="#fe386a" opacity="1.00" d=" M 520.39 873.64 C 532.82 868.85 547.27 870.56 558.69 877.23 C 571.38 884.50 579.81 898.43 580.75 912.98 C 581.62 921.79 578.69 930.30 575.26 938.27 C 565.88 958.21 539.29 966.67 519.58 957.58 C 498.10 950.11 486.34 923.86 493.47 902.61 C 495.04 897.86 497.74 893.55 501.10 889.87 C 501.53 890.41 502.38 891.48 502.81 892.02 C 503.61 893.06 504.41 894.10 505.22 895.17 C 509.71 894.23 515.00 893.96 518.23 890.27 C 519.51 886.43 518.90 882.27 518.94 878.30 C 516.88 878.41 514.82 878.50 512.76 878.69 C 514.17 875.70 517.57 874.79 520.39 873.64 Z" />
</g>
<g id="#fe9702ff">
<path fill="#fe9702" opacity="1.00" d=" M 661.40 161.65 C 671.67 159.59 682.56 161.96 691.40 167.47 C 701.63 173.08 708.73 183.37 711.65 194.54 C 715.16 207.71 713.60 222.46 706.28 234.09 C 702.90 239.30 698.49 244.12 692.73 246.69 C 682.12 252.04 669.53 255.23 657.89 251.46 C 646.61 247.75 635.13 241.52 629.31 230.71 C 623.52 218.78 619.93 204.26 625.59 191.61 C 629.67 183.77 633.90 175.39 641.40 170.27 C 647.54 166.38 654.34 163.42 661.40 161.65 M 654.44 167.47 C 648.17 171.82 641.53 175.72 635.84 180.84 C 634.39 182.22 632.58 183.80 632.79 186.02 C 633.08 189.04 635.69 190.98 637.57 193.07 C 645.02 185.49 655.02 181.03 662.28 173.28 C 665.77 168.78 657.95 164.52 654.44 167.47 Z" />
<path fill="#fe9702" opacity="1.00" d=" M 670.55 320.78 C 676.85 319.70 684.31 320.03 688.88 325.12 C 695.50 331.00 696.57 340.79 694.88 349.03 C 691.99 353.93 687.35 357.86 682.08 360.01 C 674.42 363.02 665.28 360.08 660.06 353.92 C 655.30 348.61 653.72 340.88 655.35 334.02 C 657.54 327.34 663.70 322.12 670.55 320.78 Z" />
<path fill="#fe9702" opacity="1.00" d=" M 683.36 439.56 C 695.58 435.46 709.48 447.21 707.55 459.97 C 708.62 474.97 688.57 484.75 676.93 475.96 C 669.66 470.72 666.58 460.80 669.46 452.35 C 671.95 446.34 677.42 441.93 683.36 439.56 Z" />
<path fill="#fe9702" opacity="1.00" d=" M 162.53 785.74 C 180.00 783.79 198.09 788.45 212.61 798.32 C 234.75 814.86 243.99 845.52 237.15 871.95 C 233.51 886.46 224.68 899.65 212.43 908.29 C 198.02 918.63 179.42 922.87 161.93 920.05 C 153.32 918.58 144.80 916.02 137.04 912.00 C 123.72 902.11 111.40 889.28 106.79 872.93 C 100.80 854.49 102.57 832.98 113.97 816.95 C 119.70 809.19 125.39 800.93 133.79 795.83 C 142.51 790.50 152.38 786.99 162.53 785.74 M 153.41 797.54 C 140.38 801.12 129.83 810.40 121.85 820.99 C 118.52 825.91 116.13 832.01 117.24 838.03 C 118.40 840.79 121.42 843.50 124.61 842.58 C 126.33 841.74 127.52 840.17 128.83 838.83 C 135.34 831.71 140.72 823.45 148.45 817.52 C 152.43 814.41 157.27 812.40 160.72 808.64 C 162.56 806.61 163.62 803.37 162.11 800.87 C 160.45 797.88 156.63 796.51 153.41 797.54 Z" />
</g>
</svg>
